<?xml version="1.0" encoding="UTF-8" standalone="no"?>
<!-- Created with Inkscape (http://www.inkscape.org/) -->

<svg
   width="100mm"
   height="100mm"
   viewBox="0 0 100 100"
   version="1.1"
   id="svg1"
   xml:space="preserve"
   inkscape:version="1.3 (0e150ed6c4, 2023-07-21)"
   sodipodi:docname="adaptability.svg"
   xmlns:inkscape="http://www.inkscape.org/namespaces/inkscape"
   xmlns:sodipodi="http://sodipodi.sourceforge.net/DTD/sodipodi-0.dtd"
   xmlns="http://www.w3.org/2000/svg"
   xmlns:svg="http://www.w3.org/2000/svg"><sodipodi:namedview
     id="namedview1"
     pagecolor="#ffffff"
     bordercolor="#000000"
     borderopacity="0.25"
     inkscape:showpageshadow="2"
     inkscape:pageopacity="0.0"
     inkscape:pagecheckerboard="0"
     inkscape:deskcolor="#d1d1d1"
     inkscape:document-units="mm"
     inkscape:zoom="2"
     inkscape:cx="202.75"
     inkscape:cy="167.5"
     inkscape:window-width="1920"
     inkscape:window-height="991"
     inkscape:window-x="2391"
     inkscape:window-y="-9"
     inkscape:window-maximized="1"
     inkscape:current-layer="layer1"
     showgrid="true"><inkscape:grid
       id="grid8"
       units="mm"
       originx="0"
       originy="0"
       spacingx="9.9999999"
       spacingy="9.9999999"
       empcolor="#0099e5"
       empopacity="0.30196078"
       color="#0099e5"
       opacity="0.14901961"
       empspacing="50"
       dotted="false"
       gridanglex="30"
       gridanglez="30"
       visible="true" /></sodipodi:namedview><defs
     id="defs1"><inkscape:path-effect
       effect="bspline"
       id="path-effect30"
       is_visible="true"
       lpeversion="1.3"
       weight="33.333333"
       steps="2"
       helper_size="0"
       apply_no_weight="true"
       apply_with_weight="true"
       only_selected="false"
       uniform="false" /><inkscape:path-effect
       effect="bspline"
       id="path-effect28"
       is_visible="true"
       lpeversion="1.3"
       weight="33.333333"
       steps="2"
       helper_size="0"
       apply_no_weight="true"
       apply_with_weight="true"
       only_selected="false"
       uniform="false" /><inkscape:path-effect
       effect="bspline"
       id="path-effect27"
       is_visible="true"
       lpeversion="1.3"
       weight="33.333333"
       steps="2"
       helper_size="0"
       apply_no_weight="true"
       apply_with_weight="true"
       only_selected="false"
       uniform="false" /><inkscape:path-effect
       effect="bspline"
       id="path-effect26"
       is_visible="true"
       lpeversion="1.3"
       weight="33.333333"
       steps="2"
       helper_size="0"
       apply_no_weight="true"
       apply_with_weight="true"
       only_selected="false"
       uniform="false" /><inkscape:path-effect
       effect="bspline"
       id="path-effect25"
       is_visible="true"
       lpeversion="1.3"
       weight="33.333333"
       steps="2"
       helper_size="0"
       apply_no_weight="true"
       apply_with_weight="true"
       only_selected="false"
       uniform="false" /><inkscape:path-effect
       effect="bspline"
       id="path-effect24"
       is_visible="true"
       lpeversion="1.3"
       weight="33.333333"
       steps="2"
       helper_size="0"
       apply_no_weight="true"
       apply_with_weight="true"
       only_selected="false"
       uniform="false" /><inkscape:path-effect
       effect="bspline"
       id="path-effect22"
       is_visible="true"
       lpeversion="1.3"
       weight="33.333333"
       steps="2"
       helper_size="0"
       apply_no_weight="true"
       apply_with_weight="true"
       only_selected="false"
       uniform="false" /><inkscape:path-effect
       effect="bspline"
       id="path-effect21"
       is_visible="true"
       lpeversion="1.3"
       weight="33.333333"
       steps="2"
       helper_size="0"
       apply_no_weight="true"
       apply_with_weight="true"
       only_selected="false"
       uniform="false" /><inkscape:path-effect
       effect="bspline"
       id="path-effect19"
       is_visible="true"
       lpeversion="1.3"
       weight="33.333333"
       steps="2"
       helper_size="0"
       apply_no_weight="true"
       apply_with_weight="true"
       only_selected="false"
       uniform="false" /><inkscape:path-effect
       effect="bspline"
       id="path-effect18"
       is_visible="true"
       lpeversion="1.3"
       weight="33.333333"
       steps="2"
       helper_size="0"
       apply_no_weight="true"
       apply_with_weight="true"
       only_selected="false"
       uniform="false" /><inkscape:path-effect
       effect="bspline"
       id="path-effect10"
       is_visible="true"
       lpeversion="1.3"
       weight="33.333333"
       steps="2"
       helper_size="0"
       apply_no_weight="true"
       apply_with_weight="true"
       only_selected="false"
       uniform="false" /><inkscape:path-effect
       effect="bspline"
       id="path-effect9"
       is_visible="true"
       lpeversion="1.3"
       weight="33.333333"
       steps="2"
       helper_size="0"
       apply_no_weight="true"
       apply_with_weight="true"
       only_selected="false"
       uniform="false" /><inkscape:path-effect
       effect="bspline"
       id="path-effect3"
       is_visible="true"
       lpeversion="1.3"
       weight="33.333333"
       steps="2"
       helper_size="0"
       apply_no_weight="true"
       apply_with_weight="true"
       only_selected="false"
       uniform="false" /><inkscape:path-effect
       effect="bspline"
       id="path-effect2"
       is_visible="true"
       lpeversion="1.3"
       weight="33.333333"
       steps="2"
       helper_size="0"
       apply_no_weight="true"
       apply_with_weight="true"
       only_selected="false"
       uniform="false" /><inkscape:path-effect
       effect="bspline"
       id="path-effect3-4"
       is_visible="true"
       lpeversion="1.3"
       weight="33.333333"
       steps="2"
       helper_size="0"
       apply_no_weight="true"
       apply_with_weight="true"
       only_selected="false"
       uniform="false" /><inkscape:path-effect
       effect="bspline"
       id="path-effect10-3"
       is_visible="true"
       lpeversion="1.3"
       weight="33.333333"
       steps="2"
       helper_size="0"
       apply_no_weight="true"
       apply_with_weight="true"
       only_selected="false"
       uniform="false" /><inkscape:path-effect
       effect="bspline"
       id="path-effect18-3"
       is_visible="true"
       lpeversion="1.3"
       weight="33.333333"
       steps="2"
       helper_size="0"
       apply_no_weight="true"
       apply_with_weight="true"
       only_selected="false"
       uniform="false" /><inkscape:path-effect
       effect="bspline"
       id="path-effect18-3-8"
       is_visible="true"
       lpeversion="1.3"
       weight="33.333333"
       steps="2"
       helper_size="0"
       apply_no_weight="true"
       apply_with_weight="true"
       only_selected="false"
       uniform="false" /><inkscape:path-effect
       effect="bspline"
       id="path-effect19-8"
       is_visible="true"
       lpeversion="1.3"
       weight="33.333333"
       steps="2"
       helper_size="0"
       apply_no_weight="true"
       apply_with_weight="true"
       only_selected="false"
       uniform="false" /><inkscape:path-effect
       effect="bspline"
       id="path-effect25-6"
       is_visible="true"
       lpeversion="1.3"
       weight="33.333333"
       steps="2"
       helper_size="0"
       apply_no_weight="true"
       apply_with_weight="true"
       only_selected="false"
       uniform="false" /><inkscape:path-effect
       effect="bspline"
       id="path-effect27-5"
       is_visible="true"
       lpeversion="1.3"
       weight="33.333333"
       steps="2"
       helper_size="0"
       apply_no_weight="true"
       apply_with_weight="true"
       only_selected="false"
       uniform="false" /><inkscape:path-effect
       effect="bspline"
       id="path-effect27-6"
       is_visible="true"
       lpeversion="1.3"
       weight="33.333333"
       steps="2"
       helper_size="0"
       apply_no_weight="true"
       apply_with_weight="true"
       only_selected="false"
       uniform="false" /><inkscape:path-effect
       effect="bspline"
       id="path-effect28-7"
       is_visible="true"
       lpeversion="1.3"
       weight="33.333333"
       steps="2"
       helper_size="0"
       apply_no_weight="true"
       apply_with_weight="true"
       only_selected="false"
       uniform="false" /><inkscape:path-effect
       effect="bspline"
       id="path-effect28-8"
       is_visible="true"
       lpeversion="1.3"
       weight="33.333333"
       steps="2"
       helper_size="0"
       apply_no_weight="true"
       apply_with_weight="true"
       only_selected="false"
       uniform="false" /></defs><g
     inkscape:label="Layer 1"
     inkscape:groupmode="layer"
     id="layer1"><path
       id="path29"
       style="color:#000000;fill:#000000;fill-rule:evenodd;stroke-width:0.371518;stroke-linecap:round;-inkscape-stroke:none"
       d="M 55.274662 11.064958 C 54.031649 11.074558 52.91168 11.335711 51.868152 11.888163 C 50.476782 12.624766 49.221669 13.879053 48.921562 15.543237 C 48.621452 17.207421 49.276569 19.280955 50.790698 21.449854 C 52.304828 23.618751 54.67838 25.883469 56.874565 27.47946 C 59.070749 29.07545 61.089709 30.002857 62.781181 30.343884 C 64.472655 30.684913 65.836568 30.439314 67.227938 29.866394 C 68.619306 29.293481 70.038275 28.392846 71.40236 27.997257 C 72.766452 27.601664 74.075341 27.711159 75.466711 28.352275 C 76.858072 28.993394 78.331328 30.166834 79.108866 31.735531 C 79.886403 33.304229 79.968558 35.268439 79.191032 36.932629 C 78.413514 38.59682 76.776379 39.960546 74.975785 40.738082 C 73.17519 41.515618 71.211204 41.706585 69.11051 41.597461 C 67.009816 41.488337 64.772668 41.078761 62.167265 39.728324 C 59.561861 38.377887 56.588215 36.086485 53.600863 33.658411 C 50.613511 31.230336 47.612573 28.665748 44.898035 26.960628 C 42.183497 25.25551 39.755332 24.409967 36.754346 24.232629 C 33.753358 24.055292 30.179459 24.546065 26.919287 25.869222 C 23.659115 27.19238 20.712746 29.347712 18.216459 32.157727 C 15.720174 34.967741 13.674073 38.43268 12.54187 42.429451 C 11.409667 46.426225 11.191003 50.954938 11.455115 55.224536 C 11.719228 59.494134 12.466671 63.504429 14.376383 67.542131 C 16.286096 71.57983 19.358298 75.644776 22.790857 78.880457 C 26.223414 82.116136 30.015768 84.52208 33.589681 86.268119 C 37.163593 88.014158 40.518742 89.100232 44.420028 89.506681 C 48.321315 89.913132 52.768248 89.640091 56.465287 88.701562 C 60.162328 87.763033 63.109327 86.158766 66.056433 84.554529 L 66.045581 84.554529 C 74.383755 80.058761 78.161844 70.298253 75.725094 61.547148 A 3.6170563 3.8094736 89.999997 0 0 71.067497 58.974695 A 3.6170563 3.8094736 89.999997 0 0 68.359135 63.39613 C 70.145071 69.809969 66.73697 77.09103 60.127596 79.179146 C 55.003849 80.797904 48.758719 78.488655 47.322693 73.57277 C 46.881935 72.063947 47.088117 70.186752 47.825505 68.799418 C 48.562891 67.412086 49.588917 66.565334 51.141064 66.307581 C 51.681354 66.217861 52.795746 66.406433 53.352816 66.735978 C 53.909885 67.065524 53.883048 67.004078 53.853044 67.363847 A 3.6170563 3.8094736 89.999997 0 0 57.348954 71.256116 A 3.6170563 3.8094736 89.999997 0 0 61.447929 67.935388 C 61.714577 64.738101 59.688585 61.961406 57.380994 60.596301 C 55.073403 59.231195 52.456788 58.74554 49.829 59.181917 C 45.751159 59.859096 42.651129 62.479571 41.024369 65.540186 C 39.39761 68.600799 39.002163 72.152815 39.981539 75.505469 C 40.321615 76.669634 40.78894 77.752149 41.3644 78.748682 C 42.820901 81.270909 44.97054 83.242539 47.488574 84.619641 C 45.713481 84.276656 43.946664 83.879342 42.224296 83.188204 C 40.082679 82.328834 38.009562 81.019245 36.290808 79.409623 C 34.572053 77.800003 33.208007 75.890622 32.40319 73.885413 C 31.598373 71.880204 31.352112 69.779126 31.488517 67.514742 C 31.624922 65.250357 32.14373 62.822378 33.385042 60.803524 C 34.626355 58.784671 36.590691 57.175154 38.677743 55.811064 C 40.764796 54.446973 42.974912 53.328261 45.948617 52.796261 C 48.922321 52.26426 52.659901 52.318779 56.506628 52.386983 C 60.353356 52.455183 64.308749 52.537358 68.537419 51.746195 C 72.766089 50.955033 77.267423 49.291069 80.650374 47.776929 C 81.690686 47.311307 82.591571 46.86823 83.429016 46.440059 A 12.104688 4.960938 0 0 1 77.589062 42.201042 L 89.667912 42.201042 C 89.750141 41.949475 89.78706 41.661981 89.776432 41.311174 C 89.735522 39.960736 89.025659 37.696064 87.334204 34.967891 C 85.642738 32.239727 82.969467 29.04767 78.645329 25.24187 C 74.321186 21.436072 68.346359 17.016236 64.349561 14.492655 C 60.352763 11.969073 58.334206 11.341922 56.560889 11.137305 C 56.11756 11.086155 55.689 11.061768 55.274662 11.064958 z M 73.277698 31.99443 A 2.2916517 2.2916517 0 0 0 70.985848 34.285763 A 2.2916517 2.2916517 0 0 0 73.277698 36.577612 A 2.2916517 2.2916517 0 0 0 75.569031 34.285763 A 2.2916517 2.2916517 0 0 0 73.277698 31.99443 z " /></g></svg>
