<?xml version="1.0" encoding="UTF-8" standalone="no"?>
<!-- Created with Inkscape (http://www.inkscape.org/) -->

<svg
   width="100mm"
   height="100mm"
   viewBox="0 0 100 100"
   version="1.1"
   id="svg1"
   xml:space="preserve"
   inkscape:version="1.3 (0e150ed6c4, 2023-07-21)"
   sodipodi:docname="administration.svg"
   xmlns:inkscape="http://www.inkscape.org/namespaces/inkscape"
   xmlns:sodipodi="http://sodipodi.sourceforge.net/DTD/sodipodi-0.dtd"
   xmlns="http://www.w3.org/2000/svg"
   xmlns:svg="http://www.w3.org/2000/svg"><sodipodi:namedview
     id="namedview1"
     pagecolor="#ffffff"
     bordercolor="#000000"
     borderopacity="0.25"
     inkscape:showpageshadow="2"
     inkscape:pageopacity="0.0"
     inkscape:pagecheckerboard="0"
     inkscape:deskcolor="#d1d1d1"
     inkscape:document-units="mm"
     inkscape:zoom="1.4289282"
     inkscape:cx="127.71811"
     inkscape:cy="235.84111"
     inkscape:window-width="1920"
     inkscape:window-height="991"
     inkscape:window-x="2391"
     inkscape:window-y="-9"
     inkscape:window-maximized="1"
     inkscape:current-layer="layer1"
     showgrid="true"><inkscape:grid
       id="grid8"
       units="mm"
       originx="0"
       originy="0"
       spacingx="9.9999999"
       spacingy="9.9999999"
       empcolor="#0099e5"
       empopacity="0.30196078"
       color="#0099e5"
       opacity="0.14901961"
       empspacing="50"
       dotted="false"
       gridanglex="30"
       gridanglez="30"
       visible="true" /></sodipodi:namedview><defs
     id="defs1"><inkscape:path-effect
       effect="bspline"
       id="path-effect3"
       is_visible="true"
       lpeversion="1.3"
       weight="33.333333"
       steps="2"
       helper_size="0"
       apply_no_weight="true"
       apply_with_weight="true"
       only_selected="false"
       uniform="false" /><inkscape:path-effect
       effect="bspline"
       id="path-effect2"
       is_visible="true"
       lpeversion="1.3"
       weight="33.333333"
       steps="2"
       helper_size="0"
       apply_no_weight="true"
       apply_with_weight="true"
       only_selected="false"
       uniform="false" /><inkscape:path-effect
       effect="bspline"
       id="path-effect3-4"
       is_visible="true"
       lpeversion="1.3"
       weight="33.333333"
       steps="2"
       helper_size="0"
       apply_no_weight="true"
       apply_with_weight="true"
       only_selected="false"
       uniform="false" /></defs><g
     inkscape:label="Layer 1"
     inkscape:groupmode="layer"
     id="layer1"><path
       id="rect2"
       style="color:#000000;fill:#000000;stroke-width:1;stroke-linecap:round;stroke-linejoin:round;-inkscape-stroke:none"
       d="m 49.773398,10 c -4.691021,0 -8.548831,3.498511 -8.548831,7.75035 v 2.43232 h -2.473235 a 1.7590399,1.5943559 0 0 0 -1.759066,-1.59438 1.7590399,1.5943559 0 0 0 -1.759065,1.59438 h -8.768457 c -5.405978,0 -9.515699,4.403053 -9.515699,9.465574 v 50.886182 c 0,5.06252 4.109721,9.465574 9.515699,9.465574 h 47.070513 c 5.405974,0 9.515698,-4.403054 9.515698,-9.465574 V 29.648244 c 0,-5.062521 -4.109724,-9.465574 -9.515698,-9.465574 H 64.31463 a 1.7590399,1.5943559 0 0 0 -1.758549,-1.59438 1.7590399,1.5943559 0 0 0 -1.759066,1.59438 H 58.324298 V 17.75035 C 58.324298,13.498511 54.464423,10 49.773398,10 Z m 0,4.758314 c 1.85373,0 3.300574,1.31186 3.300574,2.992036 0,1.015716 -0.530822,1.894402 -1.358573,2.43232 h -3.882967 c -0.827434,-0.537904 -1.358057,-1.416512 -1.358057,-2.43232 0,-1.680176 1.445299,-2.992036 3.299023,-2.992036 z m -23.308654,9.955971 h 5.114416 v 3.021546 c 0,2.370881 2.138292,4.279626 4.79454,4.279626 h 26.88518 c 2.656248,0 4.794541,-1.908745 4.794541,-4.279626 v -3.021546 h 5.481836 c 2.368408,0 4.517552,2.020187 4.517552,4.933959 v 50.886182 c 0,2.913771 -2.149144,4.933958 -4.517552,4.933958 H 26.464744 c -2.368412,0 -4.515487,-2.020187 -4.515487,-4.933958 V 29.648244 c 0,-2.913772 2.147075,-4.933959 4.515487,-4.933959 z m 35.2795,14.30726 a 3.75,3.3989194 0 0 0 -2.673739,0.945668 L 43.636822,53.378453 40.11714,50.478688 a 3.75,3.3989194 0 0 0 -5.296834,0.228573 3.75,3.3989194 0 0 0 0.252181,4.800936 l 6.109188,5.03466 a 3.750375,3.3992593 0 0 0 5.117001,-0.05995 L 64.259854,44.874004 a 3.75,3.3989194 0 0 0 0.11317,-4.806089 3.75,3.3989194 0 0 0 -2.62878,-1.04637 z m 1.941484,28.152694 -28.885059,0.168149 a 2.5,2.2659463 0 0 0 -2.484086,2.280094 2.5,2.2659463 0 0 0 2.515609,2.251991 l 28.886609,-0.16815 a 2.5,2.2659463 0 0 0 2.482535,-2.280094 2.5,2.2659463 0 0 0 -2.515608,-2.25199 z m 0,9.041686 -28.885059,0.16815 a 2.5,2.2659463 0 0 0 -2.484086,2.280093 2.5,2.2659463 0 0 0 2.515609,2.251523 l 28.886609,-0.16815 a 2.5,2.2659463 0 0 0 2.482535,-2.280094 2.5,2.2659463 0 0 0 -2.515608,-2.251522 z" /></g></svg>
