<?xml version="1.0" encoding="UTF-8" standalone="no"?>
<!-- Created with Inkscape (http://www.inkscape.org/) -->

<svg
   width="100mm"
   height="100mm"
   viewBox="0 0 100 100"
   version="1.1"
   id="svg1"
   xml:space="preserve"
   inkscape:version="1.3 (0e150ed6c4, 2023-07-21)"
   sodipodi:docname="communication.svg"
   xmlns:inkscape="http://www.inkscape.org/namespaces/inkscape"
   xmlns:sodipodi="http://sodipodi.sourceforge.net/DTD/sodipodi-0.dtd"
   xmlns="http://www.w3.org/2000/svg"
   xmlns:svg="http://www.w3.org/2000/svg"><sodipodi:namedview
     id="namedview1"
     pagecolor="#ffffff"
     bordercolor="#000000"
     borderopacity="0.25"
     inkscape:showpageshadow="2"
     inkscape:pageopacity="0.0"
     inkscape:pagecheckerboard="0"
     inkscape:deskcolor="#d1d1d1"
     inkscape:document-units="mm"
     inkscape:zoom="1.4289282"
     inkscape:cx="166.20849"
     inkscape:cy="247.03831"
     inkscape:window-width="1920"
     inkscape:window-height="991"
     inkscape:window-x="2391"
     inkscape:window-y="-9"
     inkscape:window-maximized="1"
     inkscape:current-layer="layer1"
     showgrid="true"><inkscape:grid
       id="grid8"
       units="mm"
       originx="0"
       originy="0"
       spacingx="9.9999999"
       spacingy="9.9999999"
       empcolor="#0099e5"
       empopacity="0.30196078"
       color="#0099e5"
       opacity="0.14901961"
       empspacing="50"
       dotted="false"
       gridanglex="30"
       gridanglez="30"
       visible="true" /></sodipodi:namedview><defs
     id="defs1"><inkscape:path-effect
       effect="bspline"
       id="path-effect19"
       is_visible="true"
       lpeversion="1.3"
       weight="33.333333"
       steps="2"
       helper_size="0"
       apply_no_weight="true"
       apply_with_weight="true"
       only_selected="false"
       uniform="false" /><inkscape:path-effect
       effect="bspline"
       id="path-effect18"
       is_visible="true"
       lpeversion="1.3"
       weight="33.333333"
       steps="2"
       helper_size="0"
       apply_no_weight="true"
       apply_with_weight="true"
       only_selected="false"
       uniform="false" /><inkscape:path-effect
       effect="bspline"
       id="path-effect10"
       is_visible="true"
       lpeversion="1.3"
       weight="33.333333"
       steps="2"
       helper_size="0"
       apply_no_weight="true"
       apply_with_weight="true"
       only_selected="false"
       uniform="false" /><inkscape:path-effect
       effect="bspline"
       id="path-effect9"
       is_visible="true"
       lpeversion="1.3"
       weight="33.333333"
       steps="2"
       helper_size="0"
       apply_no_weight="true"
       apply_with_weight="true"
       only_selected="false"
       uniform="false" /><inkscape:path-effect
       effect="bspline"
       id="path-effect3"
       is_visible="true"
       lpeversion="1.3"
       weight="33.333333"
       steps="2"
       helper_size="0"
       apply_no_weight="true"
       apply_with_weight="true"
       only_selected="false"
       uniform="false" /><inkscape:path-effect
       effect="bspline"
       id="path-effect2"
       is_visible="true"
       lpeversion="1.3"
       weight="33.333333"
       steps="2"
       helper_size="0"
       apply_no_weight="true"
       apply_with_weight="true"
       only_selected="false"
       uniform="false" /><inkscape:path-effect
       effect="bspline"
       id="path-effect3-4"
       is_visible="true"
       lpeversion="1.3"
       weight="33.333333"
       steps="2"
       helper_size="0"
       apply_no_weight="true"
       apply_with_weight="true"
       only_selected="false"
       uniform="false" /><inkscape:path-effect
       effect="bspline"
       id="path-effect10-3"
       is_visible="true"
       lpeversion="1.3"
       weight="33.333333"
       steps="2"
       helper_size="0"
       apply_no_weight="true"
       apply_with_weight="true"
       only_selected="false"
       uniform="false" /><inkscape:path-effect
       effect="bspline"
       id="path-effect18-3"
       is_visible="true"
       lpeversion="1.3"
       weight="33.333333"
       steps="2"
       helper_size="0"
       apply_no_weight="true"
       apply_with_weight="true"
       only_selected="false"
       uniform="false" /><inkscape:path-effect
       effect="bspline"
       id="path-effect18-3-8"
       is_visible="true"
       lpeversion="1.3"
       weight="33.333333"
       steps="2"
       helper_size="0"
       apply_no_weight="true"
       apply_with_weight="true"
       only_selected="false"
       uniform="false" /><inkscape:path-effect
       effect="bspline"
       id="path-effect19-8"
       is_visible="true"
       lpeversion="1.3"
       weight="33.333333"
       steps="2"
       helper_size="0"
       apply_no_weight="true"
       apply_with_weight="true"
       only_selected="false"
       uniform="false" /></defs><g
     inkscape:label="Layer 1"
     inkscape:groupmode="layer"
     id="layer1"><path
       id="rect16-4"
       style="color:#000000;fill:#000000;stroke-width:1;stroke-linecap:round;stroke-linejoin:round;-inkscape-stroke:none"
       d="m 53.793099,14.896151 c -7.701627,0 -13.980542,6.770987 -13.980542,15.07651 v 0.408482 H 24.168034 c -7.701665,0 -13.980542,6.771093 -13.980542,15.07651 v 13.695026 c 0,8.305422 6.278877,15.076511 13.980542,15.076511 L 19.999813,85.103848 38.885999,74.22919 h 7.510652 c 7.701669,0 13.980542,-6.771089 13.980542,-15.076511 v -0.408482 h 3.500562 L 81.526807,68.907216 77.59268,58.641658 C 84.557383,57.793614 90.000191,51.398999 90.000191,43.667687 V 29.972661 c 0,-8.305376 -6.278911,-15.07651 -13.980542,-15.07651 z m 0,5.392189 h 22.22655 c 5.01819,0 8.980331,4.272743 8.980331,9.684321 v 13.695026 c 0,5.41158 -3.962276,9.68432 -8.980331,9.68432 H 60.377193 v -7.894354 -0.03566 c 0,-8.305523 -6.27891,-15.074281 -13.980542,-15.074281 h -1.584399 v -0.375046 c 0,-5.411432 3.962657,-9.68432 8.980847,-9.68432 z M 24.168034,35.773334 h 22.228617 c 5.018166,0 8.980331,4.272767 8.980331,9.684319 v 10.590449 3.104577 c 0,5.411552 -3.962165,9.684321 -8.980331,9.684321 H 24.168034 c -5.018166,0 -8.980331,-4.272769 -8.980331,-9.684321 V 45.457653 c 0,-5.411552 3.962165,-9.684319 8.980331,-9.684319 z m -1.648478,9.876022 a 1.05338,1.599601 0 0 0 -1.052649,1.598821 1.05338,1.599601 0 0 0 1.052649,1.598822 h 17.480586 a 1.05338,1.599601 0 0 0 1.052649,-1.598822 1.05338,1.599601 0 0 0 -1.052649,-1.598821 z m -0.200505,5.308599 a 1.2499983,1.3479887 0 0 0 -1.249536,1.34749 1.2499983,1.3479887 0 0 0 1.249536,1.346933 H 42.98394 a 1.2499983,1.3479887 0 0 0 1.249536,-1.346933 1.2499983,1.3479887 0 0 0 -1.249536,-1.34749 z m 0.06666,5.05671 a 1.2500011,1.3479917 0 0 0 -1.249536,1.347492 1.2500011,1.3479917 0 0 0 1.249536,1.348046 H 35.40249 a 1.2500011,1.3479917 0 0 0 1.249536,-1.348046 1.2500011,1.3479917 0 0 0 -1.249536,-1.347492 z" /></g></svg>
