<?xml version="1.0" encoding="UTF-8" standalone="no"?>
<!-- Created with Inkscape (http://www.inkscape.org/) -->

<svg
   width="100mm"
   height="100mm"
   viewBox="0 0 100 100"
   version="1.1"
   id="svg1"
   xml:space="preserve"
   inkscape:version="1.3 (0e150ed6c4, 2023-07-21)"
   sodipodi:docname="ethicalReasoning.svg"
   xmlns:inkscape="http://www.inkscape.org/namespaces/inkscape"
   xmlns:sodipodi="http://sodipodi.sourceforge.net/DTD/sodipodi-0.dtd"
   xmlns="http://www.w3.org/2000/svg"
   xmlns:svg="http://www.w3.org/2000/svg"><sodipodi:namedview
     id="namedview1"
     pagecolor="#ffffff"
     bordercolor="#000000"
     borderopacity="0.25"
     inkscape:showpageshadow="2"
     inkscape:pageopacity="0.0"
     inkscape:pagecheckerboard="0"
     inkscape:deskcolor="#d1d1d1"
     inkscape:document-units="mm"
     inkscape:zoom="2.2979941"
     inkscape:cx="188.20762"
     inkscape:cy="181.46261"
     inkscape:window-width="1920"
     inkscape:window-height="991"
     inkscape:window-x="2391"
     inkscape:window-y="-9"
     inkscape:window-maximized="1"
     inkscape:current-layer="layer1"
     showgrid="true"><inkscape:grid
       id="grid8"
       units="mm"
       originx="0"
       originy="0"
       spacingx="9.9999999"
       spacingy="9.9999999"
       empcolor="#0099e5"
       empopacity="0.30196078"
       color="#0099e5"
       opacity="0.14901961"
       empspacing="50"
       dotted="false"
       gridanglex="30"
       gridanglez="30"
       visible="true" /></sodipodi:namedview><defs
     id="defs1"><inkscape:path-effect
       effect="bspline"
       id="path-effect32"
       is_visible="true"
       lpeversion="1.3"
       weight="33.333333"
       steps="2"
       helper_size="0"
       apply_no_weight="true"
       apply_with_weight="true"
       only_selected="false"
       uniform="false" /><inkscape:path-effect
       effect="bspline"
       id="path-effect31"
       is_visible="true"
       lpeversion="1.3"
       weight="33.333333"
       steps="2"
       helper_size="0"
       apply_no_weight="true"
       apply_with_weight="true"
       only_selected="false"
       uniform="false" /><inkscape:path-effect
       effect="bspline"
       id="path-effect30"
       is_visible="true"
       lpeversion="1.3"
       weight="33.333333"
       steps="2"
       helper_size="0"
       apply_no_weight="true"
       apply_with_weight="true"
       only_selected="false"
       uniform="false" /><inkscape:path-effect
       effect="bspline"
       id="path-effect28"
       is_visible="true"
       lpeversion="1.3"
       weight="33.333333"
       steps="2"
       helper_size="0"
       apply_no_weight="true"
       apply_with_weight="true"
       only_selected="false"
       uniform="false" /><inkscape:path-effect
       effect="bspline"
       id="path-effect27"
       is_visible="true"
       lpeversion="1.3"
       weight="33.333333"
       steps="2"
       helper_size="0"
       apply_no_weight="true"
       apply_with_weight="true"
       only_selected="false"
       uniform="false" /><inkscape:path-effect
       effect="bspline"
       id="path-effect26"
       is_visible="true"
       lpeversion="1.3"
       weight="33.333333"
       steps="2"
       helper_size="0"
       apply_no_weight="true"
       apply_with_weight="true"
       only_selected="false"
       uniform="false" /><inkscape:path-effect
       effect="bspline"
       id="path-effect25"
       is_visible="true"
       lpeversion="1.3"
       weight="33.333333"
       steps="2"
       helper_size="0"
       apply_no_weight="true"
       apply_with_weight="true"
       only_selected="false"
       uniform="false" /><inkscape:path-effect
       effect="bspline"
       id="path-effect24"
       is_visible="true"
       lpeversion="1.3"
       weight="33.333333"
       steps="2"
       helper_size="0"
       apply_no_weight="true"
       apply_with_weight="true"
       only_selected="false"
       uniform="false" /><inkscape:path-effect
       effect="bspline"
       id="path-effect22"
       is_visible="true"
       lpeversion="1.3"
       weight="33.333333"
       steps="2"
       helper_size="0"
       apply_no_weight="true"
       apply_with_weight="true"
       only_selected="false"
       uniform="false" /><inkscape:path-effect
       effect="bspline"
       id="path-effect21"
       is_visible="true"
       lpeversion="1.3"
       weight="33.333333"
       steps="2"
       helper_size="0"
       apply_no_weight="true"
       apply_with_weight="true"
       only_selected="false"
       uniform="false" /><inkscape:path-effect
       effect="bspline"
       id="path-effect19"
       is_visible="true"
       lpeversion="1.3"
       weight="33.333333"
       steps="2"
       helper_size="0"
       apply_no_weight="true"
       apply_with_weight="true"
       only_selected="false"
       uniform="false" /><inkscape:path-effect
       effect="bspline"
       id="path-effect18"
       is_visible="true"
       lpeversion="1.3"
       weight="33.333333"
       steps="2"
       helper_size="0"
       apply_no_weight="true"
       apply_with_weight="true"
       only_selected="false"
       uniform="false" /><inkscape:path-effect
       effect="bspline"
       id="path-effect10"
       is_visible="true"
       lpeversion="1.3"
       weight="33.333333"
       steps="2"
       helper_size="0"
       apply_no_weight="true"
       apply_with_weight="true"
       only_selected="false"
       uniform="false" /><inkscape:path-effect
       effect="bspline"
       id="path-effect9"
       is_visible="true"
       lpeversion="1.3"
       weight="33.333333"
       steps="2"
       helper_size="0"
       apply_no_weight="true"
       apply_with_weight="true"
       only_selected="false"
       uniform="false" /><inkscape:path-effect
       effect="bspline"
       id="path-effect3"
       is_visible="true"
       lpeversion="1.3"
       weight="33.333333"
       steps="2"
       helper_size="0"
       apply_no_weight="true"
       apply_with_weight="true"
       only_selected="false"
       uniform="false" /><inkscape:path-effect
       effect="bspline"
       id="path-effect2"
       is_visible="true"
       lpeversion="1.3"
       weight="33.333333"
       steps="2"
       helper_size="0"
       apply_no_weight="true"
       apply_with_weight="true"
       only_selected="false"
       uniform="false" /><inkscape:path-effect
       effect="bspline"
       id="path-effect3-4"
       is_visible="true"
       lpeversion="1.3"
       weight="33.333333"
       steps="2"
       helper_size="0"
       apply_no_weight="true"
       apply_with_weight="true"
       only_selected="false"
       uniform="false" /><inkscape:path-effect
       effect="bspline"
       id="path-effect10-3"
       is_visible="true"
       lpeversion="1.3"
       weight="33.333333"
       steps="2"
       helper_size="0"
       apply_no_weight="true"
       apply_with_weight="true"
       only_selected="false"
       uniform="false" /><inkscape:path-effect
       effect="bspline"
       id="path-effect18-3"
       is_visible="true"
       lpeversion="1.3"
       weight="33.333333"
       steps="2"
       helper_size="0"
       apply_no_weight="true"
       apply_with_weight="true"
       only_selected="false"
       uniform="false" /><inkscape:path-effect
       effect="bspline"
       id="path-effect18-3-8"
       is_visible="true"
       lpeversion="1.3"
       weight="33.333333"
       steps="2"
       helper_size="0"
       apply_no_weight="true"
       apply_with_weight="true"
       only_selected="false"
       uniform="false" /><inkscape:path-effect
       effect="bspline"
       id="path-effect19-8"
       is_visible="true"
       lpeversion="1.3"
       weight="33.333333"
       steps="2"
       helper_size="0"
       apply_no_weight="true"
       apply_with_weight="true"
       only_selected="false"
       uniform="false" /><inkscape:path-effect
       effect="bspline"
       id="path-effect25-6"
       is_visible="true"
       lpeversion="1.3"
       weight="33.333333"
       steps="2"
       helper_size="0"
       apply_no_weight="true"
       apply_with_weight="true"
       only_selected="false"
       uniform="false" /><inkscape:path-effect
       effect="bspline"
       id="path-effect27-5"
       is_visible="true"
       lpeversion="1.3"
       weight="33.333333"
       steps="2"
       helper_size="0"
       apply_no_weight="true"
       apply_with_weight="true"
       only_selected="false"
       uniform="false" /><inkscape:path-effect
       effect="bspline"
       id="path-effect27-6"
       is_visible="true"
       lpeversion="1.3"
       weight="33.333333"
       steps="2"
       helper_size="0"
       apply_no_weight="true"
       apply_with_weight="true"
       only_selected="false"
       uniform="false" /><inkscape:path-effect
       effect="bspline"
       id="path-effect28-7"
       is_visible="true"
       lpeversion="1.3"
       weight="33.333333"
       steps="2"
       helper_size="0"
       apply_no_weight="true"
       apply_with_weight="true"
       only_selected="false"
       uniform="false" /><inkscape:path-effect
       effect="bspline"
       id="path-effect28-8"
       is_visible="true"
       lpeversion="1.3"
       weight="33.333333"
       steps="2"
       helper_size="0"
       apply_no_weight="true"
       apply_with_weight="true"
       only_selected="false"
       uniform="false" /><inkscape:path-effect
       effect="bspline"
       id="path-effect31-1"
       is_visible="true"
       lpeversion="1.3"
       weight="33.333333"
       steps="2"
       helper_size="0"
       apply_no_weight="true"
       apply_with_weight="true"
       only_selected="false"
       uniform="false" /></defs><g
     inkscape:label="Layer 1"
     inkscape:groupmode="layer"
     id="layer1"><path
       id="path30"
       style="fill:#50ff95;fill-opacity:1;fill-rule:nonzero;stroke:none;stroke-width:6.00001;stroke-linecap:round;stroke-linejoin:round;stroke-dasharray:none;stroke-opacity:1"
       d="m 49.979221,10 a 3.8651904,3.8651904 0 0 0 -3.865208,3.865209 3.8651904,3.8651904 0 0 0 3.865208,3.86521 3.8651904,3.8651904 0 0 0 3.86521,-3.86521 A 3.8651904,3.8651904 0 0 0 49.979221,10 Z m 0,7.730419 c -2.944935,5.602563 -5.889913,11.205248 -10.666524,14.365674 -4.776611,3.160427 -11.384649,3.878426 -17.992806,4.596706 1.149245,9.050296 2.298479,18.101049 7.075108,26.038083 4.702572,7.81398 12.921677,14.548283 21.19437,21.266388 C 33.618831,83.799264 20.180586,71.470163 18.209988,54.899874 16.223359,38.194794 26.588249,22.697979 42.260113,18.663688 a 3.4553352,3.4553352 0 0 0 2.485543,-4.206852 3.4553352,3.4553352 0 0 0 -4.206258,-2.485543 C 21.445256,16.886555 8.9667833,35.703744 11.346771,55.716485 c 2.379988,20.012743 18.942352,35.201141 38.63126,35.201141 19.688909,0 36.251868,-15.188398 38.631856,-35.201141 2.37999,-20.012741 -10.096103,-38.82993 -29.190246,-43.745192 a 3.4553352,3.4553352 0 0 0 -4.206852,2.485543 3.4553352,3.4553352 0 0 0 2.483756,4.206852 C 73.368409,22.697979 83.735681,38.194794 81.749051,54.899874 79.778544,71.469392 66.338669,83.798144 50.369076,83.99727 58.641772,77.279165 66.86087,70.544862 71.563446,62.730882 76.34007,54.793848 77.489308,45.743095 78.638551,36.692799 72.030401,35.974519 65.422358,35.25652 60.645748,32.096093 55.869136,28.935667 52.924162,23.332982 49.979221,17.730419 Z m 0,12.143209 c 2.018372,3.876511 4.037057,7.753037 7.310805,9.939789 0.614441,0.410426 1.285076,0.745035 1.979626,1.047546 -0.681166,3.768481 -1.386497,7.323375 -2.198658,9.976097 -0.512873,1.675175 -1.088623,2.984693 -1.524895,3.648559 -0.09109,0.138616 -0.154022,0.221384 -0.210105,0.29343 -0.202068,-0.07329 -0.523421,-0.200838 -0.939816,-0.464253 -0.896899,-0.567379 -2.078688,-1.535924 -3.317627,-2.598034 -1.23894,-1.062113 -2.540776,-2.215642 -3.927705,-3.21704 -1.38693,-1.001398 -2.816287,-2.003101 -5.003226,-2.173064 -2.186939,-0.169964 -4.251526,1.076133 -5.403794,2.467686 -1.152267,1.391554 -1.828473,2.959687 -2.420071,4.679438 -0.390135,1.134121 -0.727592,2.350188 -1.035642,3.610467 -1.73491,-4.464132 -2.345486,-9.27682 -2.950986,-14.090694 4.529031,-0.496991 9.057543,-0.993385 12.33129,-3.180138 3.273747,-2.186752 5.292432,-6.063278 7.310804,-9.939789 z M 65.991806,42.55668 c 1.194238,0.166604 2.410753,0.303135 3.629512,0.436875 -0.787661,6.262052 -1.575312,12.524848 -4.84907,18.016612 -3.273761,5.491766 -9.033278,10.212702 -14.793027,14.934088 -4.092388,-3.35462 -8.167056,-6.714316 -11.367667,-10.345118 0.697579,-3.794616 1.412778,-7.453808 2.24687,-9.878486 0.406275,-1.181037 0.833011,-1.921534 1.102304,-2.296864 0.135491,0.07547 0.396032,0.138825 1.14516,0.679714 0.97727,0.705615 2.191161,1.761735 3.473568,2.861113 1.28241,1.099377 2.628724,2.245019 4.12293,3.190255 1.494206,0.945237 3.231165,1.885905 5.572234,1.601675 2.3411,-0.284232 4.000077,-1.884273 5.04608,-3.47595 1.046002,-1.591679 1.739026,-3.400723 2.357576,-5.421054 0.939123,-3.067411 1.652116,-6.63971 2.31353,-10.30286 z" /></g></svg>
