<?xml version="1.0" encoding="UTF-8" standalone="no"?>
<!-- Created with Inkscape (http://www.inkscape.org/) -->

<svg
   width="100mm"
   height="100mm"
   viewBox="0 0 100 100"
   version="1.1"
   id="svg1"
   xml:space="preserve"
   inkscape:version="1.3 (0e150ed6c4, 2023-07-21)"
   sodipodi:docname="fiscalProficiency.svg"
   xmlns:inkscape="http://www.inkscape.org/namespaces/inkscape"
   xmlns:sodipodi="http://sodipodi.sourceforge.net/DTD/sodipodi-0.dtd"
   xmlns="http://www.w3.org/2000/svg"
   xmlns:svg="http://www.w3.org/2000/svg"><sodipodi:namedview
     id="namedview1"
     pagecolor="#ffffff"
     bordercolor="#000000"
     borderopacity="0.25"
     inkscape:showpageshadow="2"
     inkscape:pageopacity="0.0"
     inkscape:pagecheckerboard="0"
     inkscape:deskcolor="#d1d1d1"
     inkscape:document-units="mm"
     inkscape:zoom="2"
     inkscape:cx="177.25"
     inkscape:cy="190"
     inkscape:window-width="1920"
     inkscape:window-height="991"
     inkscape:window-x="2391"
     inkscape:window-y="-9"
     inkscape:window-maximized="1"
     inkscape:current-layer="layer1"
     showgrid="true"><inkscape:grid
       id="grid8"
       units="mm"
       originx="0"
       originy="0"
       spacingx="9.9999999"
       spacingy="9.9999999"
       empcolor="#0099e5"
       empopacity="0.30196078"
       color="#0099e5"
       opacity="0.14901961"
       empspacing="50"
       dotted="false"
       gridanglex="30"
       gridanglez="30"
       visible="true" /></sodipodi:namedview><defs
     id="defs1"><inkscape:path-effect
       effect="bspline"
       id="path-effect28"
       is_visible="true"
       lpeversion="1.3"
       weight="33.333333"
       steps="2"
       helper_size="0"
       apply_no_weight="true"
       apply_with_weight="true"
       only_selected="false"
       uniform="false" /><inkscape:path-effect
       effect="bspline"
       id="path-effect27"
       is_visible="true"
       lpeversion="1.3"
       weight="33.333333"
       steps="2"
       helper_size="0"
       apply_no_weight="true"
       apply_with_weight="true"
       only_selected="false"
       uniform="false" /><inkscape:path-effect
       effect="bspline"
       id="path-effect26"
       is_visible="true"
       lpeversion="1.3"
       weight="33.333333"
       steps="2"
       helper_size="0"
       apply_no_weight="true"
       apply_with_weight="true"
       only_selected="false"
       uniform="false" /><inkscape:path-effect
       effect="bspline"
       id="path-effect25"
       is_visible="true"
       lpeversion="1.3"
       weight="33.333333"
       steps="2"
       helper_size="0"
       apply_no_weight="true"
       apply_with_weight="true"
       only_selected="false"
       uniform="false" /><inkscape:path-effect
       effect="bspline"
       id="path-effect24"
       is_visible="true"
       lpeversion="1.3"
       weight="33.333333"
       steps="2"
       helper_size="0"
       apply_no_weight="true"
       apply_with_weight="true"
       only_selected="false"
       uniform="false" /><inkscape:path-effect
       effect="bspline"
       id="path-effect22"
       is_visible="true"
       lpeversion="1.3"
       weight="33.333333"
       steps="2"
       helper_size="0"
       apply_no_weight="true"
       apply_with_weight="true"
       only_selected="false"
       uniform="false" /><inkscape:path-effect
       effect="bspline"
       id="path-effect21"
       is_visible="true"
       lpeversion="1.3"
       weight="33.333333"
       steps="2"
       helper_size="0"
       apply_no_weight="true"
       apply_with_weight="true"
       only_selected="false"
       uniform="false" /><inkscape:path-effect
       effect="bspline"
       id="path-effect19"
       is_visible="true"
       lpeversion="1.3"
       weight="33.333333"
       steps="2"
       helper_size="0"
       apply_no_weight="true"
       apply_with_weight="true"
       only_selected="false"
       uniform="false" /><inkscape:path-effect
       effect="bspline"
       id="path-effect18"
       is_visible="true"
       lpeversion="1.3"
       weight="33.333333"
       steps="2"
       helper_size="0"
       apply_no_weight="true"
       apply_with_weight="true"
       only_selected="false"
       uniform="false" /><inkscape:path-effect
       effect="bspline"
       id="path-effect10"
       is_visible="true"
       lpeversion="1.3"
       weight="33.333333"
       steps="2"
       helper_size="0"
       apply_no_weight="true"
       apply_with_weight="true"
       only_selected="false"
       uniform="false" /><inkscape:path-effect
       effect="bspline"
       id="path-effect9"
       is_visible="true"
       lpeversion="1.3"
       weight="33.333333"
       steps="2"
       helper_size="0"
       apply_no_weight="true"
       apply_with_weight="true"
       only_selected="false"
       uniform="false" /><inkscape:path-effect
       effect="bspline"
       id="path-effect3"
       is_visible="true"
       lpeversion="1.3"
       weight="33.333333"
       steps="2"
       helper_size="0"
       apply_no_weight="true"
       apply_with_weight="true"
       only_selected="false"
       uniform="false" /><inkscape:path-effect
       effect="bspline"
       id="path-effect2"
       is_visible="true"
       lpeversion="1.3"
       weight="33.333333"
       steps="2"
       helper_size="0"
       apply_no_weight="true"
       apply_with_weight="true"
       only_selected="false"
       uniform="false" /><inkscape:path-effect
       effect="bspline"
       id="path-effect3-4"
       is_visible="true"
       lpeversion="1.3"
       weight="33.333333"
       steps="2"
       helper_size="0"
       apply_no_weight="true"
       apply_with_weight="true"
       only_selected="false"
       uniform="false" /><inkscape:path-effect
       effect="bspline"
       id="path-effect10-3"
       is_visible="true"
       lpeversion="1.3"
       weight="33.333333"
       steps="2"
       helper_size="0"
       apply_no_weight="true"
       apply_with_weight="true"
       only_selected="false"
       uniform="false" /><inkscape:path-effect
       effect="bspline"
       id="path-effect18-3"
       is_visible="true"
       lpeversion="1.3"
       weight="33.333333"
       steps="2"
       helper_size="0"
       apply_no_weight="true"
       apply_with_weight="true"
       only_selected="false"
       uniform="false" /><inkscape:path-effect
       effect="bspline"
       id="path-effect18-3-8"
       is_visible="true"
       lpeversion="1.3"
       weight="33.333333"
       steps="2"
       helper_size="0"
       apply_no_weight="true"
       apply_with_weight="true"
       only_selected="false"
       uniform="false" /><inkscape:path-effect
       effect="bspline"
       id="path-effect19-8"
       is_visible="true"
       lpeversion="1.3"
       weight="33.333333"
       steps="2"
       helper_size="0"
       apply_no_weight="true"
       apply_with_weight="true"
       only_selected="false"
       uniform="false" /><inkscape:path-effect
       effect="bspline"
       id="path-effect25-6"
       is_visible="true"
       lpeversion="1.3"
       weight="33.333333"
       steps="2"
       helper_size="0"
       apply_no_weight="true"
       apply_with_weight="true"
       only_selected="false"
       uniform="false" /><inkscape:path-effect
       effect="bspline"
       id="path-effect27-5"
       is_visible="true"
       lpeversion="1.3"
       weight="33.333333"
       steps="2"
       helper_size="0"
       apply_no_weight="true"
       apply_with_weight="true"
       only_selected="false"
       uniform="false" /><inkscape:path-effect
       effect="bspline"
       id="path-effect27-6"
       is_visible="true"
       lpeversion="1.3"
       weight="33.333333"
       steps="2"
       helper_size="0"
       apply_no_weight="true"
       apply_with_weight="true"
       only_selected="false"
       uniform="false" /><inkscape:path-effect
       effect="bspline"
       id="path-effect28-7"
       is_visible="true"
       lpeversion="1.3"
       weight="33.333333"
       steps="2"
       helper_size="0"
       apply_no_weight="true"
       apply_with_weight="true"
       only_selected="false"
       uniform="false" /><inkscape:path-effect
       effect="bspline"
       id="path-effect28-8"
       is_visible="true"
       lpeversion="1.3"
       weight="33.333333"
       steps="2"
       helper_size="0"
       apply_no_weight="true"
       apply_with_weight="true"
       only_selected="false"
       uniform="false" /></defs><g
     inkscape:label="Layer 1"
     inkscape:groupmode="layer"
     id="layer1"><path
       id="text28"
       style="-inkscape-font-specification:'Corbel Bold';display:inline;fill:#50ff95;fill-opacity:1;stroke:none;stroke-width:4.25;stroke-linejoin:round"
       d="m 90.02927,10.186458 -9.620956,3.938515 2.864715,2.102673 -1.981548,2.283353 -4.872655,1.462666 a 2.0873933,2.0246604 0 0 0 -1.334903,1.215031 l -2.733763,6.9756 -1.638431,-0.680871 a 2.0873933,2.0246604 0 0 0 -2.355624,0.487391 c -1.559241,1.638417 -3.301228,3.510787 -4.65034,6.917999 -1.296477,3.274284 -1.966247,7.054505 -2.670317,11.034237 l -2.771831,3.745526 -3.880866,-2.840652 c -0.127649,-1.09792 -0.432258,-2.035355 -0.917176,-2.809145 -0.637047,-1.050437 -1.476008,-1.894949 -2.516522,-2.533448 -1.01928,-0.659096 -2.187178,-1.153304 -3.503744,-1.48285 -1.295332,-0.350146 -2.611584,-0.628012 -3.949389,-0.833981 V 32.30958 c 2.82425,0.123581 5.871119,0.700154 9.141305,1.729992 V 27.922568 C 51.29942,27.469442 49.823563,27.119133 48.209707,26.87197 46.617082,26.604214 45.046074,26.429058 43.49592,26.346672 V 23.2574 h -5.065024 v 3.181827 c -1.720032,0.185368 -3.270066,0.515334 -4.650339,0.989058 -1.359036,0.473729 -2.516194,1.101903 -3.471768,1.88458 -0.955572,0.76208 -1.688132,1.678541 -2.19777,2.749574 -0.50964,1.050437 -0.764397,2.255184 -0.764397,3.61457 0,1.668343 0.328937,3.027895 0.98722,4.078331 0.658284,1.050437 1.507477,1.894949 2.547992,2.533449 1.061748,0.638502 2.251128,1.122289 3.567698,1.451834 1.316564,0.308954 2.643561,0.556054 3.981364,0.741426 v 6.766366 c -1.082982,-0.0206 -2.081042,-0.0722 -2.994145,-0.154587 -0.913104,-0.102983 -1.783275,-0.226536 -2.611438,-0.370712 -0.828164,-0.164775 -1.635407,-0.350348 -2.4211,-0.556316 -0.785693,-0.226564 -1.59243,-0.483591 -2.420593,-0.771948 v 6.055465 c 1.210393,0.535515 2.72871,0.957773 4.554917,1.266723 1.847442,0.288356 3.811334,0.463016 5.892359,0.524807 v 3.027734 h 0.906517 l -0.606544,3.062193 -3.221028,0.712871 a 2.0873933,2.0246604 0 0 0 -1.252678,0.824134 l -2.731732,3.836604 -6.819687,-3.356598 A 2.0873933,2.0246604 0 0 0 21.916149,66.20492 L 10.482666,87.126795 a 2.0871846,2.024458 0 0 0 0.866928,2.736775 2.0871846,2.024458 0 0 0 2.820048,-0.840873 l 10.474687,-19.163329 6.618182,3.258135 a 2.0873933,2.0246604 0 0 0 2.662702,-0.65527 l 3.307316,-4.645969 3.756004,-0.832011 a 2.0873933,2.0246604 0 0 0 1.584629,-1.590667 l 0.920728,-4.646461 3.216968,0.467206 a 2.0873933,2.0246604 0 0 0 2.283041,-1.343526 l 3.353503,-9.459817 5.110198,3.738143 a 2.0873933,2.0246604 0 0 0 2.952525,-0.435206 l 4.287428,-5.797985 a 2.0873933,2.0246604 0 0 0 0.362911,-0.837427 c 0.736313,-4.159051 1.420091,-7.905197 2.541902,-10.738356 0.866884,-2.189336 1.803997,-3.367461 2.877405,-4.549475 l 2.225179,0.925058 a 2.0873933,2.0246604 0 0 0 2.77386,-1.140691 l 3.146417,-8.025214 4.484872,-1.347464 a 2.0873933,2.0246604 0 0 0 0.978592,-0.628685 l 2.517538,-2.899238 2.129248,1.563096 z m -3.173317,10.732449 -2.694173,2.252831 -0.983158,0.458343 v 66.468815 h 3.677331 z m -5.997427,3.792297 -1.196845,0.557792 -2.480994,8.46928 v 56.36062 h 3.677839 z m -42.42763,7.752963 v 5.931894 c -1.38027,-0.247161 -2.41005,-0.597471 -3.089567,-1.050598 -0.679523,-0.453132 -1.019197,-1.112069 -1.019197,-1.977134 0,-0.76208 0.297215,-1.390255 0.891797,-1.884579 0.594578,-0.514918 1.666817,-0.854807 3.216967,-1.019583 z m 32.752365,0.944259 v 56.69047 h 3.677331 V 39.483583 Z m -2.320094,5.567581 -1.28821,2.08052 -1.799836,8.510635 -0.589795,0.65084 v 39.880894 h 3.677841 z m -25.367247,6.24796 c 1.337805,0.226565 2.325122,0.566452 2.962169,1.019582 0.658281,0.432533 0.98722,1.081054 0.98722,1.946117 0,1.565358 -1.31625,2.513073 -3.949389,2.842624 z m 19.369312,7.556038 -3.677332,4.060114 v 33.258777 h 3.677332 z m -9.675266,0.252064 v 37.023996 h 3.676825 V 55.618688 Z m -7.505411,3.723373 -0.07259,0.205295 -0.589795,-0.08567 c 0.224096,-0.03756 0.445976,-0.07668 0.662377,-0.119634 z m 5.171105,1.855532 -2.438866,5.881185 -1.238466,-0.573546 v 26.137452 h 3.677332 z m -6.167969,4.154147 -2.314005,9.497232 -1.193293,-1.68913 v 19.482842 h 3.677333 V 62.84389 Z m -5.827392,6.618671 -3.67784,4.27378 v 16.398493 h 3.67784 z m -13.459695,3.002132 -2.213505,3.99513 v 13.675011 h 3.677333 V 73.123411 Z m 3.78443,1.907718 v 15.762423 h 3.677332 V 76.146712 Z m -8.318029,6.275529 -3.677839,6.637378 v 2.849516 h 3.677839 z" /></g></svg>
