<?xml version="1.0" encoding="UTF-8" standalone="no"?>
<!-- Created with Inkscape (http://www.inkscape.org/) -->

<svg
   width="100mm"
   height="100mm"
   viewBox="0 0 100 100"
   version="1.1"
   id="svg1"
   xml:space="preserve"
   inkscape:version="1.3 (0e150ed6c4, 2023-07-21)"
   sodipodi:docname="leadership.svg"
   xmlns:inkscape="http://www.inkscape.org/namespaces/inkscape"
   xmlns:sodipodi="http://sodipodi.sourceforge.net/DTD/sodipodi-0.dtd"
   xmlns="http://www.w3.org/2000/svg"
   xmlns:svg="http://www.w3.org/2000/svg"><sodipodi:namedview
     id="namedview1"
     pagecolor="#ffffff"
     bordercolor="#000000"
     borderopacity="0.25"
     inkscape:showpageshadow="2"
     inkscape:pageopacity="0.0"
     inkscape:pagecheckerboard="0"
     inkscape:deskcolor="#d1d1d1"
     inkscape:document-units="mm"
     inkscape:zoom="1.4289282"
     inkscape:cx="143.11426"
     inkscape:cy="187.55316"
     inkscape:window-width="1920"
     inkscape:window-height="991"
     inkscape:window-x="2391"
     inkscape:window-y="-9"
     inkscape:window-maximized="1"
     inkscape:current-layer="layer1"
     showgrid="true"><inkscape:grid
       id="grid8"
       units="mm"
       originx="0"
       originy="0"
       spacingx="9.9999999"
       spacingy="9.9999999"
       empcolor="#0099e5"
       empopacity="0.30196078"
       color="#0099e5"
       opacity="0.14901961"
       empspacing="50"
       dotted="false"
       gridanglex="30"
       gridanglez="30"
       visible="true" /></sodipodi:namedview><defs
     id="defs1"><inkscape:path-effect
       effect="bspline"
       id="path-effect22"
       is_visible="true"
       lpeversion="1.3"
       weight="33.333333"
       steps="2"
       helper_size="0"
       apply_no_weight="true"
       apply_with_weight="true"
       only_selected="false"
       uniform="false" /><inkscape:path-effect
       effect="bspline"
       id="path-effect21"
       is_visible="true"
       lpeversion="1.3"
       weight="33.333333"
       steps="2"
       helper_size="0"
       apply_no_weight="true"
       apply_with_weight="true"
       only_selected="false"
       uniform="false" /><inkscape:path-effect
       effect="bspline"
       id="path-effect19"
       is_visible="true"
       lpeversion="1.3"
       weight="33.333333"
       steps="2"
       helper_size="0"
       apply_no_weight="true"
       apply_with_weight="true"
       only_selected="false"
       uniform="false" /><inkscape:path-effect
       effect="bspline"
       id="path-effect18"
       is_visible="true"
       lpeversion="1.3"
       weight="33.333333"
       steps="2"
       helper_size="0"
       apply_no_weight="true"
       apply_with_weight="true"
       only_selected="false"
       uniform="false" /><inkscape:path-effect
       effect="bspline"
       id="path-effect10"
       is_visible="true"
       lpeversion="1.3"
       weight="33.333333"
       steps="2"
       helper_size="0"
       apply_no_weight="true"
       apply_with_weight="true"
       only_selected="false"
       uniform="false" /><inkscape:path-effect
       effect="bspline"
       id="path-effect9"
       is_visible="true"
       lpeversion="1.3"
       weight="33.333333"
       steps="2"
       helper_size="0"
       apply_no_weight="true"
       apply_with_weight="true"
       only_selected="false"
       uniform="false" /><inkscape:path-effect
       effect="bspline"
       id="path-effect3"
       is_visible="true"
       lpeversion="1.3"
       weight="33.333333"
       steps="2"
       helper_size="0"
       apply_no_weight="true"
       apply_with_weight="true"
       only_selected="false"
       uniform="false" /><inkscape:path-effect
       effect="bspline"
       id="path-effect2"
       is_visible="true"
       lpeversion="1.3"
       weight="33.333333"
       steps="2"
       helper_size="0"
       apply_no_weight="true"
       apply_with_weight="true"
       only_selected="false"
       uniform="false" /><inkscape:path-effect
       effect="bspline"
       id="path-effect3-4"
       is_visible="true"
       lpeversion="1.3"
       weight="33.333333"
       steps="2"
       helper_size="0"
       apply_no_weight="true"
       apply_with_weight="true"
       only_selected="false"
       uniform="false" /><inkscape:path-effect
       effect="bspline"
       id="path-effect10-3"
       is_visible="true"
       lpeversion="1.3"
       weight="33.333333"
       steps="2"
       helper_size="0"
       apply_no_weight="true"
       apply_with_weight="true"
       only_selected="false"
       uniform="false" /><inkscape:path-effect
       effect="bspline"
       id="path-effect18-3"
       is_visible="true"
       lpeversion="1.3"
       weight="33.333333"
       steps="2"
       helper_size="0"
       apply_no_weight="true"
       apply_with_weight="true"
       only_selected="false"
       uniform="false" /><inkscape:path-effect
       effect="bspline"
       id="path-effect18-3-8"
       is_visible="true"
       lpeversion="1.3"
       weight="33.333333"
       steps="2"
       helper_size="0"
       apply_no_weight="true"
       apply_with_weight="true"
       only_selected="false"
       uniform="false" /><inkscape:path-effect
       effect="bspline"
       id="path-effect19-8"
       is_visible="true"
       lpeversion="1.3"
       weight="33.333333"
       steps="2"
       helper_size="0"
       apply_no_weight="true"
       apply_with_weight="true"
       only_selected="false"
       uniform="false" /></defs><g
     inkscape:label="Layer 1"
     inkscape:groupmode="layer"
     id="layer1"><path
       id="path20"
       style="fill:#000000;fill-opacity:1;fill-rule:nonzero;stroke:none;stroke-width:2.5;stroke-linecap:round;stroke-linejoin:round;stroke-dasharray:none;stroke-opacity:1"
       d="M 63.922196 9.9229085 A 17.084961 17.084961 0 0 0 46.837451 27.008171 A 17.084961 17.084961 0 0 0 59.616516 43.511556 L 53.222591 54.859184 L 72.764034 41.596944 A 17.084961 17.084961 0 0 0 81.007458 27.008171 A 17.084961 17.084961 0 0 0 63.922196 9.9229085 z M 71.75376 15.984554 A 1.250125 1.250125 0 0 1 72.38938 16.103927 A 1.250125 1.250125 0 0 1 73.094763 17.134355 L 73.509725 22.614124 A 1.250125 1.250125 0 0 1 71.722237 23.836788 L 70.625146 23.309688 L 67.689925 29.533081 A 1.4556456 1.073621 0 0 1 65.180001 29.849858 L 61.774007 26.712065 L 56.605847 36.398295 A 1.4555 1.0735136 0 0 1 54.719141 37.004976 A 1.4555 1.0735136 0 0 1 53.898519 35.61178 L 59.986519 24.200073 A 1.4556456 1.073621 0 0 1 62.476807 23.923604 L 65.806836 26.993184 L 68.112638 22.10201 L 66.769568 21.456571 A 1.250125 1.250125 0 0 1 66.60627 19.298047 L 71.143461 16.197978 A 1.250125 1.250125 0 0 1 71.75376 15.984554 z M 35.448482 39.929862 A 13.88174 13.88174 0 0 0 21.566642 53.811186 A 13.88174 13.88174 0 0 0 35.448482 67.693026 A 13.88174 13.88174 0 0 0 49.330322 53.811186 A 13.88174 13.88174 0 0 0 35.448482 39.929862 z M 70.364697 51.619588 A 10.662274 10.653544 0 0 0 59.702299 62.273201 A 10.662274 10.653544 0 0 0 70.364697 72.926815 A 10.662274 10.653544 0 0 0 81.027096 62.273201 A 10.662274 10.653544 0 0 0 70.364697 51.619588 z M 22.157304 69.714091 C 15.416448 69.714091 9.9900879 75.140967 9.9900879 81.881824 L 9.9900879 89.933529 L 60.906877 89.933529 L 60.906877 81.881824 C 60.906877 75.140967 55.480517 69.714091 48.739661 69.714091 L 22.157304 69.714091 z M 60.472795 74.538603 C 60.360052 74.538603 60.248127 74.543388 60.136381 74.547388 C 61.737001 76.595087 62.691781 79.174039 62.691781 81.98621 L 62.691781 89.933529 L 90.000191 89.933529 L 90.000191 83.803153 C 90.000191 78.670813 85.864436 74.539119 80.727889 74.539119 L 60.472795 74.538603 z " /></g></svg>
