<?xml version="1.0" encoding="UTF-8" standalone="no"?>
<!-- Created with Inkscape (http://www.inkscape.org/) -->

<svg
   width="100mm"
   height="100mm"
   viewBox="0 0 100 100"
   version="1.1"
   id="svg1"
   xml:space="preserve"
   inkscape:version="1.3 (0e150ed6c4, 2023-07-21)"
   sodipodi:docname="research.svg"
   xmlns:inkscape="http://www.inkscape.org/namespaces/inkscape"
   xmlns:sodipodi="http://sodipodi.sourceforge.net/DTD/sodipodi-0.dtd"
   xmlns="http://www.w3.org/2000/svg"
   xmlns:svg="http://www.w3.org/2000/svg"><sodipodi:namedview
     id="namedview1"
     pagecolor="#ffffff"
     bordercolor="#000000"
     borderopacity="0.25"
     inkscape:showpageshadow="2"
     inkscape:pageopacity="0.0"
     inkscape:pagecheckerboard="0"
     inkscape:deskcolor="#d1d1d1"
     inkscape:document-units="mm"
     inkscape:zoom="2"
     inkscape:cx="123.25"
     inkscape:cy="207"
     inkscape:window-width="1920"
     inkscape:window-height="991"
     inkscape:window-x="2391"
     inkscape:window-y="-9"
     inkscape:window-maximized="1"
     inkscape:current-layer="layer1"
     showgrid="true"><inkscape:grid
       id="grid8"
       units="mm"
       originx="0"
       originy="0"
       spacingx="9.9999999"
       spacingy="9.9999999"
       empcolor="#0099e5"
       empopacity="0.30196078"
       color="#0099e5"
       opacity="0.14901961"
       empspacing="50"
       dotted="false"
       gridanglex="30"
       gridanglez="30"
       visible="true" /></sodipodi:namedview><defs
     id="defs1"><inkscape:path-effect
       effect="bspline"
       id="path-effect27"
       is_visible="true"
       lpeversion="1.3"
       weight="33.333333"
       steps="2"
       helper_size="0"
       apply_no_weight="true"
       apply_with_weight="true"
       only_selected="false"
       uniform="false" /><inkscape:path-effect
       effect="bspline"
       id="path-effect26"
       is_visible="true"
       lpeversion="1.3"
       weight="33.333333"
       steps="2"
       helper_size="0"
       apply_no_weight="true"
       apply_with_weight="true"
       only_selected="false"
       uniform="false" /><inkscape:path-effect
       effect="bspline"
       id="path-effect25"
       is_visible="true"
       lpeversion="1.3"
       weight="33.333333"
       steps="2"
       helper_size="0"
       apply_no_weight="true"
       apply_with_weight="true"
       only_selected="false"
       uniform="false" /><inkscape:path-effect
       effect="bspline"
       id="path-effect24"
       is_visible="true"
       lpeversion="1.3"
       weight="33.333333"
       steps="2"
       helper_size="0"
       apply_no_weight="true"
       apply_with_weight="true"
       only_selected="false"
       uniform="false" /><inkscape:path-effect
       effect="bspline"
       id="path-effect22"
       is_visible="true"
       lpeversion="1.3"
       weight="33.333333"
       steps="2"
       helper_size="0"
       apply_no_weight="true"
       apply_with_weight="true"
       only_selected="false"
       uniform="false" /><inkscape:path-effect
       effect="bspline"
       id="path-effect21"
       is_visible="true"
       lpeversion="1.3"
       weight="33.333333"
       steps="2"
       helper_size="0"
       apply_no_weight="true"
       apply_with_weight="true"
       only_selected="false"
       uniform="false" /><inkscape:path-effect
       effect="bspline"
       id="path-effect19"
       is_visible="true"
       lpeversion="1.3"
       weight="33.333333"
       steps="2"
       helper_size="0"
       apply_no_weight="true"
       apply_with_weight="true"
       only_selected="false"
       uniform="false" /><inkscape:path-effect
       effect="bspline"
       id="path-effect18"
       is_visible="true"
       lpeversion="1.3"
       weight="33.333333"
       steps="2"
       helper_size="0"
       apply_no_weight="true"
       apply_with_weight="true"
       only_selected="false"
       uniform="false" /><inkscape:path-effect
       effect="bspline"
       id="path-effect10"
       is_visible="true"
       lpeversion="1.3"
       weight="33.333333"
       steps="2"
       helper_size="0"
       apply_no_weight="true"
       apply_with_weight="true"
       only_selected="false"
       uniform="false" /><inkscape:path-effect
       effect="bspline"
       id="path-effect9"
       is_visible="true"
       lpeversion="1.3"
       weight="33.333333"
       steps="2"
       helper_size="0"
       apply_no_weight="true"
       apply_with_weight="true"
       only_selected="false"
       uniform="false" /><inkscape:path-effect
       effect="bspline"
       id="path-effect3"
       is_visible="true"
       lpeversion="1.3"
       weight="33.333333"
       steps="2"
       helper_size="0"
       apply_no_weight="true"
       apply_with_weight="true"
       only_selected="false"
       uniform="false" /><inkscape:path-effect
       effect="bspline"
       id="path-effect2"
       is_visible="true"
       lpeversion="1.3"
       weight="33.333333"
       steps="2"
       helper_size="0"
       apply_no_weight="true"
       apply_with_weight="true"
       only_selected="false"
       uniform="false" /><inkscape:path-effect
       effect="bspline"
       id="path-effect3-4"
       is_visible="true"
       lpeversion="1.3"
       weight="33.333333"
       steps="2"
       helper_size="0"
       apply_no_weight="true"
       apply_with_weight="true"
       only_selected="false"
       uniform="false" /><inkscape:path-effect
       effect="bspline"
       id="path-effect10-3"
       is_visible="true"
       lpeversion="1.3"
       weight="33.333333"
       steps="2"
       helper_size="0"
       apply_no_weight="true"
       apply_with_weight="true"
       only_selected="false"
       uniform="false" /><inkscape:path-effect
       effect="bspline"
       id="path-effect18-3"
       is_visible="true"
       lpeversion="1.3"
       weight="33.333333"
       steps="2"
       helper_size="0"
       apply_no_weight="true"
       apply_with_weight="true"
       only_selected="false"
       uniform="false" /><inkscape:path-effect
       effect="bspline"
       id="path-effect18-3-8"
       is_visible="true"
       lpeversion="1.3"
       weight="33.333333"
       steps="2"
       helper_size="0"
       apply_no_weight="true"
       apply_with_weight="true"
       only_selected="false"
       uniform="false" /><inkscape:path-effect
       effect="bspline"
       id="path-effect19-8"
       is_visible="true"
       lpeversion="1.3"
       weight="33.333333"
       steps="2"
       helper_size="0"
       apply_no_weight="true"
       apply_with_weight="true"
       only_selected="false"
       uniform="false" /><inkscape:path-effect
       effect="bspline"
       id="path-effect25-6"
       is_visible="true"
       lpeversion="1.3"
       weight="33.333333"
       steps="2"
       helper_size="0"
       apply_no_weight="true"
       apply_with_weight="true"
       only_selected="false"
       uniform="false" /><inkscape:path-effect
       effect="bspline"
       id="path-effect27-5"
       is_visible="true"
       lpeversion="1.3"
       weight="33.333333"
       steps="2"
       helper_size="0"
       apply_no_weight="true"
       apply_with_weight="true"
       only_selected="false"
       uniform="false" /><inkscape:path-effect
       effect="bspline"
       id="path-effect27-6"
       is_visible="true"
       lpeversion="1.3"
       weight="33.333333"
       steps="2"
       helper_size="0"
       apply_no_weight="true"
       apply_with_weight="true"
       only_selected="false"
       uniform="false" /></defs><g
     inkscape:label="Layer 1"
     inkscape:groupmode="layer"
     id="layer1"><path
       id="path23"
       style="color:#000000;fill:#00ff00;stroke-width:1;stroke-linecap:round;stroke-linejoin:round;-inkscape-stroke:none"
       d="m 76.402612,12.713642 a 5.0538448,5.0538448 0 0 0 -5.054011,5.054011 5.0538448,5.0538448 0 0 0 5.054011,5.054012 5.0538448,5.0538448 0 0 0 5.053465,-5.054012 5.0538448,5.0538448 0 0 0 -5.053465,-5.054011 z m -29.15431,0.595265 c -20.417966,0 -37.015196,16.597777 -37.015196,37.015741 0,20.417965 16.59723,37.015196 37.015196,37.015196 7.073262,0 13.686302,-1.994594 19.311396,-5.447029 L 63.52434,78.790769 c -4.794586,2.743187 -10.346759,4.318267 -16.276038,4.318267 -18.131346,0 -32.784388,-14.653042 -32.784388,-32.784388 0,-18.131346 14.653042,-32.784934 32.784388,-32.784934 7.488728,0 14.379932,2.50475 19.894635,6.716817 h 6.36261 C 66.796545,17.499274 57.505315,13.308907 47.248302,13.308907 Z m 0,8.032521 c -15.981734,0 -28.98322,13.001486 -28.98322,28.98322 0,15.981734 13.001486,28.98322 28.98322,28.98322 4.874321,0 9.468607,-1.21463 13.504148,-3.349116 l -3.098766,-3.166547 c -3.162239,1.463139 -6.685002,2.284308 -10.405382,2.284308 -13.695116,0 -24.751866,-11.056749 -24.751866,-24.751865 0,-13.695114 11.05675,-24.752412 24.751866,-24.752412 5.239838,0 10.09033,1.62307 14.086294,4.38878 V 29.763141 H 85.802767 A 2.4769911,2.4769911 0 0 0 88.280031,27.286424 2.4769911,2.4769911 0 0 0 85.802767,24.80916 H 61.334596 v 0.197876 C 57.161349,22.67594 52.358671,21.341428 47.248302,21.341428 Z m 0,8.088277 c -11.514402,0 -20.894943,9.380541 -20.894943,20.894943 0,11.514402 9.380541,20.892757 20.894943,20.892757 2.639104,0 5.15658,-0.51269 7.484266,-1.410817 l -3.24198,-3.313038 a 1.2981055,1.3467628 1.8212366e-6 0 1 -0.03389,-0.06012 c -1.345892,0.348699 -2.750871,0.553175 -4.208397,0.553175 -9.227784,0 -16.663588,-7.434165 -16.663588,-16.661949 0,-9.227783 7.435804,-16.664134 16.663588,-16.664134 5.948575,0 11.138814,3.099705 14.086294,7.76796 h 19.549721 a 3.2198416,3.2198416 0 0 0 3.220114,-3.220116 3.2198416,3.2198416 0 0 0 -3.220114,-3.219568 h -19.54972 v -0.04701 c -3.72053,-3.409995 -8.658325,-5.512082 -14.086294,-5.512082 z m 0,6.271872 c -8.044656,0 -14.622524,6.578416 -14.622524,14.623071 0,8.044656 6.577868,14.622524 14.622524,14.622524 8.044654,0 14.62307,-6.577868 14.62307,-14.622524 0,-8.044655 -6.578416,-14.623069 -14.62307,-14.623071 z m 0,5.289056 c 5.186367,0 9.334016,4.147648 9.334015,9.334015 0,5.186368 -4.147648,9.334015 -9.334015,9.334015 -5.186368,0 -9.333469,-4.147647 -9.333469,-9.334015 0,-2.94793 1.341147,-5.558707 3.450241,-7.264526 a 3.8074105,3.8074105 0 0 0 -1.083393,2.643981 3.8074105,3.8074105 0 0 0 3.80718,3.807727 3.8074105,3.8074105 0 0 0 3.807728,-3.807727 3.8074105,3.8074105 0 0 0 -3.807728,-3.80718 3.8074105,3.8074105 0 0 0 -1.424482,0.283147 c 1.351347,-0.757102 2.912943,-1.189437 4.583923,-1.189437 z m 17.804922,2.279935 v 0.197876 h -2.619383 c 0.942215,2.091298 1.478595,4.406925 1.478595,6.856204 0,0.930031 -0.09468,1.835426 -0.239963,2.723241 a 1.2981055,1.3467628 1.8212366e-6 0 1 0.290252,0.198421 l 3.231594,3.302654 c 0.615982,-1.967057 0.949472,-4.057749 0.949472,-6.224316 0,-1.627085 -0.210846,-3.202014 -0.571214,-4.720576 h 3.962966 c 0.296539,1.528786 0.465171,3.103533 0.465171,4.720576 0,3.289991 -0.643775,6.424828 -1.803287,9.293565 l 3.178026,3.247446 c 1.829851,-3.797017 2.856069,-8.051439 2.856069,-12.541011 0,-1.60887 -0.144819,-3.183078 -0.400124,-4.720576 h 3.85255 c 0.223355,1.54192 0.349288,3.115912 0.349288,4.720576 0,5.578636 -1.391665,10.825472 -3.840525,15.420038 l 3.068156,3.135389 c 3.175274,-5.458864 5.003176,-11.79507 5.003176,-18.555427 0,-1.60071 -0.114545,-3.174034 -0.315398,-4.720576 h 5.057292 a 1.1666677,1.1666677 0 0 0 1.166478,-1.167025 1.1666677,1.1666677 0 0 0 -1.166478,-1.166479 z m 2.037785,16.515457 -2.934782,2.754944 -2.47617,-2.616104 -4.386046,4.118204 2.617743,2.766424 -2.694817,2.530286 15.470873,15.728875 a 6.6139064,6.8717299 49.702936 0 0 9.561953,-0.07653 6.6139064,6.8717299 49.702936 0 0 0.286427,-9.506198 z" /></g></svg>
