<?xml version="1.0" encoding="UTF-8" standalone="no"?>
<!-- Created with Inkscape (http://www.inkscape.org/) -->

<svg
   width="100mm"
   height="100mm"
   viewBox="0 0 100 100"
   version="1.1"
   id="svg1"
   xml:space="preserve"
   inkscape:version="1.3 (0e150ed6c4, 2023-07-21)"
   sodipodi:docname="strategic-thinking.svg"
   xmlns:inkscape="http://www.inkscape.org/namespaces/inkscape"
   xmlns:sodipodi="http://sodipodi.sourceforge.net/DTD/sodipodi-0.dtd"
   xmlns="http://www.w3.org/2000/svg"
   xmlns:svg="http://www.w3.org/2000/svg"><sodipodi:namedview
     id="namedview1"
     pagecolor="#ffffff"
     bordercolor="#000000"
     borderopacity="0.25"
     inkscape:showpageshadow="2"
     inkscape:pageopacity="0.0"
     inkscape:pagecheckerboard="0"
     inkscape:deskcolor="#d1d1d1"
     inkscape:document-units="mm"
     inkscape:zoom="1.0104048"
     inkscape:cx="87.588658"
     inkscape:cy="244.45648"
     inkscape:window-width="1920"
     inkscape:window-height="991"
     inkscape:window-x="2391"
     inkscape:window-y="-9"
     inkscape:window-maximized="1"
     inkscape:current-layer="layer1"
     showgrid="true"><inkscape:grid
       id="grid8"
       units="mm"
       originx="0"
       originy="0"
       spacingx="9.9999999"
       spacingy="9.9999999"
       empcolor="#0099e5"
       empopacity="0.30196078"
       color="#0099e5"
       opacity="0.14901961"
       empspacing="50"
       dotted="false"
       gridanglex="30"
       gridanglez="30"
       visible="true" /></sodipodi:namedview><defs
     id="defs1"><inkscape:path-effect
       effect="bspline"
       id="path-effect10"
       is_visible="true"
       lpeversion="1.3"
       weight="33.333333"
       steps="2"
       helper_size="0"
       apply_no_weight="true"
       apply_with_weight="true"
       only_selected="false"
       uniform="false" /><inkscape:path-effect
       effect="bspline"
       id="path-effect9"
       is_visible="true"
       lpeversion="1.3"
       weight="33.333333"
       steps="2"
       helper_size="0"
       apply_no_weight="true"
       apply_with_weight="true"
       only_selected="false"
       uniform="false" /><inkscape:path-effect
       effect="bspline"
       id="path-effect3"
       is_visible="true"
       lpeversion="1.3"
       weight="33.333333"
       steps="2"
       helper_size="0"
       apply_no_weight="true"
       apply_with_weight="true"
       only_selected="false"
       uniform="false" /><inkscape:path-effect
       effect="bspline"
       id="path-effect2"
       is_visible="true"
       lpeversion="1.3"
       weight="33.333333"
       steps="2"
       helper_size="0"
       apply_no_weight="true"
       apply_with_weight="true"
       only_selected="false"
       uniform="false" /><inkscape:path-effect
       effect="bspline"
       id="path-effect3-4"
       is_visible="true"
       lpeversion="1.3"
       weight="33.333333"
       steps="2"
       helper_size="0"
       apply_no_weight="true"
       apply_with_weight="true"
       only_selected="false"
       uniform="false" /><inkscape:path-effect
       effect="bspline"
       id="path-effect10-3"
       is_visible="true"
       lpeversion="1.3"
       weight="33.333333"
       steps="2"
       helper_size="0"
       apply_no_weight="true"
       apply_with_weight="true"
       only_selected="false"
       uniform="false" /></defs><g
     inkscape:label="Layer 1"
     inkscape:groupmode="layer"
     id="layer1"><path
       id="path8"
       style="display:inline;fill:#000000;fill-opacity:1;fill-rule:nonzero;stroke:none;stroke-width:5.24998;stroke-linecap:round;stroke-linejoin:round;stroke-dasharray:none;stroke-opacity:1"
       inkscape:label="head"
       d="m 52.671731,10.000001 a 30.027565,30.365543 0 0 0 -15.411907,4.412308 c -0.0047,2.64797 -0.0096,5.422359 -0.01433,8.09264 2.176762,-0.0036 5.27747,-0.01228 6.757167,-0.01228 2.501797,0 4.016897,7.99e-4 4.987871,0.110517 0.485485,0.05486 0.84543,0.117541 1.183169,0.330173 0.337738,0.212632 0.549999,0.693022 0.53154,1.038953 -0.03692,0.691847 -0.400598,1.230745 -0.77104,1.887577 -0.37044,0.65683 -0.787082,1.365659 -1.039195,1.99809 -0.504231,1.264869 -0.42331,2.243088 0.141925,2.815337 0.548669,0.555477 1.956347,0.936551 3.473086,1.256565 1.51671,-0.320011 2.924422,-0.701098 3.473087,-1.256565 0.56523,-0.572249 0.646152,-1.550468 0.141926,-2.815337 -0.252114,-0.632431 -0.668761,-1.34126 -1.039196,-1.99809 -0.370441,-0.656832 -0.734123,-1.19573 -0.771039,-1.887577 -0.01846,-0.345931 0.193805,-0.826321 0.531538,-1.038953 0.337738,-0.212631 0.69768,-0.275314 1.18317,-0.330173 0.970974,-0.109713 2.486074,-0.110517 4.987871,-0.110517 1.479698,0 4.693407,0.0092 6.757167,0.01228 -0.0048,-2.747962 -0.01033,-5.625525 -0.01501,-8.382564 a 30.027565,30.365543 0 0 0 -15.0878,-4.122384 z m 16.409483,4.947133 c 0.0041,2.447379 0.0094,5.081809 0.01363,7.559861 2.505756,0.0041 5.304636,0.0099 7.85982,0.01433 a 30.027565,30.365543 0 0 0 -7.87346,-7.574187 z M 35.93814,15.231601 a 30.027565,30.365543 0 0 0 -7.560958,7.289038 c 2.541289,-0.0046 5.007363,-0.009 7.547993,-0.01365 0.0042,-2.4004 0.009,-4.93076 0.01294,-7.275395 z m 8.064521,8.581077 c -1.479262,0 -4.581713,0.0087 -6.759215,0.01228 -0.0041,2.525586 -0.01433,6.211786 -0.01433,7.952112 0,2.49942 0.01163,4.027629 0.103029,4.836621 0.0356,0.314881 0.07843,0.412981 0.105765,0.490483 0.148416,-0.04117 0.609903,-0.219328 1.191358,-0.547104 0.639293,-0.360381 1.385679,-0.805895 2.158908,-1.113991 1.54646,-0.616193 3.174302,-0.615687 4.231843,0.428405 1.057536,1.044086 1.324586,2.708812 1.650569,4.277236 a 0.66019972,0.66004448 0 0 1 -0.0081,0.133706 0.66019972,0.66004448 0 0 1 0.0081,0.133707 c -0.325983,1.568423 -0.593033,3.23315 -1.650569,4.277237 -1.057541,1.044089 -2.685383,1.044596 -4.231843,0.428405 -0.773229,-0.308098 -1.519615,-0.753613 -2.158908,-1.113991 -0.581455,-0.327776 -1.042942,-0.505248 -1.191358,-0.546422 -0.02733,0.0775 -0.07017,0.174919 -0.105765,0.489802 -0.09141,0.80899 -0.103029,2.337204 -0.103029,4.83662 0,1.688223 0.008,4.924948 0.01363,7.714034 2.388171,0.0048 5.280486,0.01228 6.759897,0.01228 2.500005,0 4.028575,-0.01162 4.837758,-0.103005 0.314955,-0.03559 0.413077,-0.07841 0.490598,-0.10574 -0.04118,-0.148377 -0.21938,-0.60976 -0.547232,-1.191076 -0.360461,-0.639148 -0.806085,-1.385353 -1.114254,-2.158401 -0.616333,-1.546096 -0.61583,-3.173553 0.428507,-4.23085 1.044331,-1.057287 2.709453,-1.324273 4.278241,-1.65018 a 0.66019972,0.66004448 0 0 1 0.133738,0.0082 0.66019972,0.66004448 0 0 1 0.133739,-0.0082 c 1.568791,0.325907 3.233911,0.592893 4.278241,1.65018 1.04434,1.057297 1.044843,2.684754 0.428507,4.23085 -0.308166,0.773048 -0.753789,1.519253 -1.114253,2.158401 -0.327853,0.581316 -0.505368,1.042699 -0.54655,1.191076 0.07753,0.02733 0.174959,0.07015 0.489917,0.10574 0.80918,0.09139 2.337754,0.103005 4.837758,0.103005 1.47926,0 4.694798,-0.0092 6.759211,-0.01228 0.0054,-2.775596 0.01433,-6.211785 0.01433,-7.952114 0,-2.499415 -0.01163,-4.02763 -0.103028,-4.836619 -0.0356,-0.314885 -0.07844,-0.412982 -0.105764,-0.490485 -0.148418,0.04117 -0.609908,0.219333 -1.191357,0.547105 -0.639298,0.36038 -1.385679,0.805898 -2.158908,1.113991 -1.546461,0.616192 -3.174304,0.615689 -4.231845,-0.428406 -1.057536,-1.044086 -1.324585,-2.708812 -1.650569,-4.277236 a 0.66019972,0.66004448 0 0 1 0.0081,-0.133707 0.66019972,0.66004448 0 0 1 -0.0081,-0.133706 c 0.325984,-1.568419 0.593033,-3.23315 1.650569,-4.277236 1.057541,-1.04409 2.685384,-1.044593 4.231845,-0.428406 0.773229,0.308098 1.51961,0.753616 2.158908,1.113991 0.581449,0.327775 1.042939,0.50525 1.191357,0.546424 0.02733,-0.0775 0.07017,-0.174919 0.105764,-0.489802 0.09141,-0.808995 0.103028,-2.337205 0.103028,-4.83662 0,-1.688225 -0.0098,-5.282205 -0.01363,-7.714034 -2.064671,-0.003 -5.280485,-0.01228 -6.759896,-0.01228 -2.500003,0 -4.028578,0.01162 -4.837757,0.103005 -0.314958,0.03559 -0.413076,0.07841 -0.4906,0.105739 0.04118,0.148381 0.219382,0.609763 0.547233,1.191077 0.360466,0.639147 0.806088,1.38535 1.114254,2.158401 0.616338,1.546097 0.615835,3.173557 -0.428506,4.230849 -1.044333,1.057287 -2.70945,1.324273 -4.278243,1.650181 a 0.66019972,0.66004448 0 0 1 -0.133738,-0.0082 0.66019972,0.66004448 0 0 1 -0.133738,0.0082 c -1.568787,-0.325908 -3.23391,-0.592894 -4.278242,-1.650181 -1.044335,-1.057292 -1.044839,-2.684752 -0.428507,-4.230849 0.308171,-0.773051 0.753795,-1.519254 1.114254,-2.158401 0.327852,-0.581314 0.505372,-1.042696 0.54655,-1.191077 -0.07752,-0.02733 -0.174962,-0.07015 -0.489916,-0.105739 -0.809184,-0.09139 -2.337753,-0.103005 -4.837756,-0.103005 z m -8.079533,0.01433 c -2.809784,0.0052 -5.455872,0.0095 -8.347008,0.01501 a 30.027565,30.365543 0 0 0 -4.93192,16.523639 30.027565,30.365543 0 0 0 0.206748,2.92653 l -0.0689,-0.01979 c -1.856106,3.788155 -3.712379,7.576128 -4.759289,9.691659 -1.046908,2.115529 -1.284499,2.558896 -1.142229,3.133228 0.142268,0.574336 0.664506,1.279679 2.166414,1.643361 1.50191,0.363679 3.98336,0.385648 4.648751,1.457807 0.66539,1.072159 -0.48554,3.19461 -0.895223,4.417083 -0.409684,1.22247 -0.0781,1.544708 0.336392,1.916911 0.41449,0.372201 0.912289,0.794187 1.148368,1.382086 0.23608,0.587901 0.210347,1.341711 0.06346,3.309912 -0.146891,1.968201 -0.414759,5.150803 1.604853,6.278738 2.019608,1.127933 6.326861,0.201321 9.354134,-0.397025 3.027274,-0.598347 4.774042,-0.868549 6.131465,-0.0996 1.357424,0.768954 2.325506,2.576716 2.34587,5.071971 0.02036,2.495253 -0.907101,5.678088 -1.834119,8.860769 l 30.393265,0.06071 C 70.401696,84.549611 68.459209,79.09933 69.192447,73.852242 69.925688,68.605155 73.334301,63.561998 76.743171,58.518316 l -0.07914,-0.02251 a 30.027565,30.365543 0 0 0 0.432602,-0.690361 c -2.607565,0.0044 -5.450744,0.01012 -8.001747,0.01432 -0.0053,2.547184 -0.0072,4.401348 -0.01293,7.059828 H 67.7616 c 0.0058,-2.658104 0.0076,-4.511008 0.01295,-7.05778 -2.063761,0.003 -5.27747,0.01228 -6.757167,0.01228 -2.501796,0 -4.016897,-8e-4 -4.987871,-0.110518 -0.48549,-0.05485 -0.845432,-0.117541 -1.18317,-0.330171 -0.337734,-0.212632 -0.549998,-0.693023 -0.531539,-1.038954 0.03692,-0.691848 0.400598,-1.230748 0.771039,-1.887577 0.370438,-0.656832 0.787083,-1.36566 1.039196,-1.998091 0.504228,-1.264868 0.423306,-2.243091 -0.141924,-2.815334 -0.548674,-0.555482 -1.956349,-0.936556 -3.473087,-1.256567 -1.516712,0.320007 -2.924426,0.701094 -3.473087,1.256567 -0.565235,0.572243 -0.646155,1.550466 -0.141926,2.815334 0.252115,0.632431 0.668757,1.341259 1.039196,1.998091 0.370441,0.656829 0.734121,1.195729 0.771039,1.887577 0.01846,0.345931 -0.193802,0.826322 -0.53154,1.038954 -0.337737,0.212628 -0.697681,0.275312 -1.183168,0.330171 -0.970975,0.109713 -2.486074,0.110518 -4.987871,0.110518 -1.479847,0 -4.370687,-0.0075 -6.757849,-0.01228 0.0038,1.796018 0.0052,3.082726 0.0089,4.848217 h -1.32032 c -0.0037,-1.766009 -0.0051,-3.053739 -0.0089,-4.850265 -2.067821,-0.0043 -3.605749,-0.006 -5.662701,-0.01033 v -1.319984 c 2.056472,0.0042 3.5933,0.006 5.660654,0.01033 -0.0056,-2.787981 -0.01366,-6.023204 -0.01366,-7.711987 0,-2.501207 8.01e-4,-4.015949 0.110544,-4.986699 0.05488,-0.485371 0.117568,-0.845231 0.33025,-1.18289 0.212682,-0.33766 0.693185,-0.549869 1.039197,-0.531415 0.692015,0.03691 1.231034,0.400508 1.888023,0.770857 0.656983,0.370354 1.365976,0.786902 1.998559,1.038952 1.265168,0.504112 2.243615,0.42321 2.815998,-0.141892 0.555612,-0.54854 0.936772,-1.955887 1.256861,-3.472269 -0.320085,-1.516353 -0.701259,-2.923737 -1.256861,-3.47227 -0.572383,-0.5651 -1.55083,-0.646003 -2.815998,-0.141892 -0.632583,0.252051 -1.341576,0.6686 -1.998559,1.038952 -0.656989,0.370349 -1.196008,0.733947 -1.888023,0.770856 -0.346012,0.01846 -0.826515,-0.193756 -1.039197,-0.531413 -0.212682,-0.337659 -0.275374,-0.697518 -0.33025,-1.182891 -0.109738,-0.97075 -0.110544,-2.485487 -0.110544,-4.986699 0,-1.740918 0.01012,-5.425269 0.01433,-7.950065 z m 33.174462,0 c 0.0038,2.431067 0.01363,6.023202 0.01363,7.711988 0,2.501208 -8e-4,4.015952 -0.110544,4.986698 -0.05488,0.485375 -0.117568,0.845235 -0.33025,1.18289 -0.212678,0.33766 -0.693185,0.54987 -1.039196,0.531416 -0.692011,-0.03691 -1.231038,-0.400505 -1.88802,-0.770858 -0.656988,-0.370354 -1.365982,-0.786898 -1.998561,-1.038952 -1.265168,-0.504112 -2.243618,-0.42321 -2.816,0.141892 -0.555609,0.54854 -0.936774,1.955887 -1.25686,3.472269 0.320082,1.516353 0.701261,2.923735 1.25686,3.472271 0.572382,0.565097 1.550832,0.646 2.816,0.141893 0.632579,-0.252055 1.341573,-0.668604 1.998561,-1.038953 0.656982,-0.370353 1.196009,-0.733948 1.88802,-0.770857 0.346011,-0.01846 0.826518,0.19376 1.039196,0.531413 0.212682,0.337659 0.275375,0.697516 0.33025,1.182892 0.109738,0.970746 0.110544,2.48549 0.110544,4.986698 0,1.740919 -0.0089,5.175477 -0.01433,7.950065 2.81482,-0.0046 5.907335,-0.01043 8.828738,-0.01568 a 30.027565,30.365543 0 0 0 4.773626,-16.11844 30.027565,30.365543 0 0 0 -4.846628,-16.522956 c -2.892816,-0.0052 -5.963664,-0.01109 -8.755044,-0.0157 z" /></g></svg>
