<?xml version="1.0" encoding="UTF-8" standalone="no"?>
<!-- Created with Inkscape (http://www.inkscape.org/) -->

<svg
   width="100mm"
   height="100mm"
   viewBox="0 0 100 100"
   version="1.1"
   id="svg1"
   sodipodi:docname="nw-logo.svg"
   inkscape:version="1.3 (0e150ed6c4, 2023-07-21)"
   xmlns:inkscape="http://www.inkscape.org/namespaces/inkscape"
   xmlns:sodipodi="http://sodipodi.sourceforge.net/DTD/sodipodi-0.dtd"
   xmlns="http://www.w3.org/2000/svg"
   xmlns:svg="http://www.w3.org/2000/svg">
  <sodipodi:namedview
     id="namedview1"
     pagecolor="#ffffff"
     bordercolor="#000000"
     borderopacity="0.25"
     inkscape:showpageshadow="2"
     inkscape:pageopacity="0.0"
     inkscape:pagecheckerboard="false"
     inkscape:deskcolor="#d1d1d1"
     inkscape:document-units="px"
     inkscape:zoom="4"
     inkscape:cx="189.375"
     inkscape:cy="217"
     inkscape:window-width="3200"
     inkscape:window-height="1711"
     inkscape:window-x="4791"
     inkscape:window-y="-9"
     inkscape:window-maximized="1"
     inkscape:current-layer="layer1" />
  <defs
     id="defs1">
    <rect
       x="0.017578125"
       y="274.45312"
       width="127.25195"
       height="63.640627"
       id="rect9" />
    <rect
       x="250.43352"
       y="274.66163"
       width="127.25179"
       height="63.640628"
       id="rect8" />
    <inkscape:path-effect
       effect="bspline"
       id="path-effect8"
       is_visible="true"
       lpeversion="1.3"
       weight="33.333333"
       steps="2"
       helper_size="0"
       apply_no_weight="true"
       apply_with_weight="true"
       only_selected="false"
       uniform="false" />
    <inkscape:path-effect
       effect="bspline"
       id="path-effect7"
       is_visible="true"
       lpeversion="1.3"
       weight="33.333333"
       steps="2"
       helper_size="0"
       apply_no_weight="true"
       apply_with_weight="true"
       only_selected="false"
       uniform="false" />
    <inkscape:path-effect
       effect="bspline"
       id="path-effect2"
       is_visible="true"
       lpeversion="1.3"
       weight="33.333333"
       steps="2"
       helper_size="0"
       apply_no_weight="true"
       apply_with_weight="true"
       only_selected="false"
       uniform="false" />
    <inkscape:path-effect
       effect="bspline"
       id="path-effect1"
       is_visible="true"
       lpeversion="1.3"
       weight="33.333333"
       steps="2"
       helper_size="0"
       apply_no_weight="true"
       apply_with_weight="true"
       only_selected="false"
       uniform="false" />
    <inkscape:path-effect
       effect="bspline"
       id="path-effect1-0"
       is_visible="true"
       lpeversion="1.3"
       weight="33.333333"
       steps="2"
       helper_size="0"
       apply_no_weight="true"
       apply_with_weight="true"
       only_selected="false"
       uniform="false" />
    <inkscape:path-effect
       effect="bspline"
       id="path-effect2-4"
       is_visible="true"
       lpeversion="1.3"
       weight="33.333333"
       steps="2"
       helper_size="0"
       apply_no_weight="true"
       apply_with_weight="true"
       only_selected="false"
       uniform="false" />
  </defs>
  <g
     inkscape:label="Layer 1"
     inkscape:groupmode="layer"
     id="layer1">
    <path
       id="path2"
       style="opacity:1;fill:#000000;fill-opacity:1;stroke-width:5.20144371;stroke-linecap:round;stroke-linejoin:round;stroke-dasharray:none"
       inkscape:label="crossbar"
       d="M 46.60129 20.569804 C 44.930661 20.758468 43.259794 20.94734 41.264148 21.500496 C 39.268501 22.053653 36.948075 22.971251 34.760152 24.036776 C 32.572228 25.1023 30.517026 26.315768 28.826664 27.517183 C 27.136302 28.718598 25.810501 29.907867 24.595398 30.899406 C 23.380295 31.890944 22.275751 32.684644 21.291723 33.258435 C 20.307696 33.832225 19.444657 34.186085 18.581295 34.54001 L 18.114656 36.711454 C 18.940481 36.561304 19.76632 36.411434 20.744987 36.135262 C 21.723654 35.859089 22.855062 35.456898 23.946342 34.912597 C 25.037621 34.368296 26.08843 33.681826 27.592631 32.625399 C 29.096832 31.568971 31.054205 30.142518 32.923055 29.000297 C 34.791904 27.858075 36.572358 27.000132 38.224023 26.353947 C 39.875688 25.707761 41.398305 25.273293 42.72194 25.007776 C 44.045575 24.742258 45.170034 24.64556 46.294332 24.548889 L 53.842191 24.548889 C 54.966493 24.64556 56.090942 24.742258 57.414583 25.007776 C 58.738223 25.273293 60.261344 25.707761 61.913016 26.353947 C 63.564688 27.000132 65.345127 27.858075 67.213985 29.000297 C 69.082842 30.142518 71.039684 31.568971 72.543892 32.625399 C 74.048099 33.681826 75.099414 34.368296 76.190698 34.912597 C 77.281982 35.456898 78.413382 35.859089 79.392053 36.135262 C 80.370723 36.411434 81.196555 36.561304 82.022383 36.711454 L 81.555745 34.54001 C 80.692379 34.186085 79.829347 33.832225 78.845316 33.258435 C 77.861285 32.684644 76.756233 31.890944 75.541125 30.899406 C 74.326017 29.907867 73.000744 28.718598 71.310375 27.517183 C 69.620007 26.315768 67.56482 25.1023 65.376888 24.036776 C 63.188955 22.971251 60.868547 22.053653 58.872892 21.500496 C 56.877237 20.94734 55.206385 20.758468 53.53575 20.569804 L 46.60129 20.569804 z " />
    <path
       id="path1"
       style="fill:#000000;stroke-width:2;stroke-linecap:round;stroke-linejoin:round"
       d="M 50.000048 0.073897298 C 49.919943 0.086220842 49.839564 0.098363872 49.63883 0.23202718 C 49.438097 0.36569049 49.117095 0.6208164 48.718473 1.830896 C 48.319851 3.0409756 47.843743 5.2060928 47.450333 6.8460937 C 47.056923 8.4860946 46.746222 9.6007339 46.640047 10.54871 C 46.533871 11.496686 46.632508 12.277802 46.863806 13.130981 C 47.095104 13.984161 47.459048 14.909814 47.584175 15.546855 C 47.709302 16.183895 47.595325 16.532586 47.386771 17.245459 C 47.178218 17.958332 46.875145 19.035084 46.640047 20.347078 C 46.404948 21.659072 46.23779 23.20598 46.309834 25.223266 C 46.381878 27.240552 46.692864 29.728251 47.101001 31.756201 C 47.509137 33.784151 48.014702 35.352353 48.520035 36.920744 L 48.093705 36.952783 L 48.085437 37.500036 L 48.560343 37.484017 C 48.091124 47.265217 47.621639 57.046143 47.408475 62.802884 C 47.195311 68.559626 47.238501 70.291834 47.351115 71.329496 C 47.463728 72.367157 47.645787 72.710108 47.699414 72.956787 C 47.75304 73.203465 47.677888 73.353614 47.431213 73.75312 C 47.184538 74.152627 46.766277 74.801788 46.734098 75.622257 C 46.701919 76.442726 47.055958 77.434556 46.972843 79.126436 C 46.889728 80.818315 46.369437 83.210097 46.165657 85.458349 C 45.961877 87.706601 46.074748 89.811055 46.187361 91.915836 C 44.248818 91.923879 42.310403 91.93211 41.185599 91.95356 C 40.060796 91.97501 39.749822 92.009749 39.421366 92.134427 C 39.09291 92.259106 38.746946 92.473954 38.492224 92.807771 C 38.237502 93.141588 38.073903 93.594358 37.910347 94.047489 C 36.776179 94.122563 35.641897 94.197865 34.813379 94.524979 C 33.984861 94.852093 33.461886 95.430904 32.96853 95.778132 C 32.475174 96.12536 32.01162 96.240641 31.510221 96.617358 C 31.008823 96.994075 30.469749 97.632303 29.850374 98.065331 C 29.230999 98.49836 28.531127 98.72639 28.047383 99.014627 C 27.56364 99.302864 27.295989 99.651534 27.028324 100.0001 L 50.000048 100.0001 L 72.971773 100.0001 C 72.704108 99.651534 72.436458 99.302864 71.952713 99.014627 C 71.468969 98.72639 70.7691 98.49836 70.149723 98.065331 C 69.530346 97.632303 68.991276 96.994075 68.489876 96.617358 C 67.988476 96.240641 67.524924 96.12536 67.031567 95.778132 C 66.53821 95.430904 66.015238 94.852093 65.186718 94.524979 C 64.358198 94.197865 63.223921 94.122563 62.08975 94.047489 C 61.926193 93.594358 61.762596 93.141588 61.507873 92.807771 C 61.25315 92.473954 60.907188 92.259106 60.578731 92.134427 C 60.250274 92.009749 59.939304 91.97501 58.814497 91.95356 C 57.68969 91.93211 55.751285 91.923879 53.812736 91.915836 C 53.925349 89.811055 54.03822 87.706601 53.83444 85.458349 C 53.630659 83.210097 53.110369 80.818315 53.027254 79.126436 C 52.944139 77.434556 53.298178 76.442726 53.265999 75.622257 C 53.23382 74.801788 52.815559 74.152627 52.568884 73.75312 C 52.322208 73.353614 52.247057 73.203465 52.300683 72.956787 C 52.35431 72.710108 52.536369 72.367157 52.648982 71.329496 C 52.761596 70.291834 52.804786 68.559626 52.591622 62.802884 C 52.378457 57.046143 51.908974 47.265217 51.439754 37.484017 L 51.91466 37.500036 L 51.906392 36.952783 L 51.480061 36.920744 C 51.985396 35.352353 52.490959 33.784151 52.899096 31.756201 C 53.307234 29.728251 53.618218 27.240552 53.690262 25.223266 C 53.762307 23.20598 53.595149 21.659072 53.36005 20.347078 C 53.124951 19.035084 52.82188 17.958332 52.613326 17.245459 C 52.404772 16.532586 52.290794 16.183895 52.415922 15.546855 C 52.541049 14.909814 52.904993 13.984161 53.136291 13.130981 C 53.367589 12.277802 53.466226 11.496686 53.36005 10.54871 C 53.253874 9.6007339 52.943175 8.4860946 52.549764 6.8460937 C 52.156352 5.2060928 51.680247 3.0409756 51.281624 1.830896 C 50.883001 0.6208164 50.561484 0.36569049 50.36075 0.23202718 C 50.160016 0.098363872 50.080155 0.086220842 50.000048 0.073897298 z "
       inkscape:label="center" />
    <path
       style="fill:none;stroke:#000000;stroke-width:0.926039;stroke-linecap:round;stroke-linejoin:round;stroke-dasharray:none;stroke-opacity:1"
       d="M 15.853309,36.457554 0.46781997,53.659034"
       id="path4"
       sodipodi:nodetypes="cc"
       inkscape:label="string" />
    <path
       style="fill:none;stroke:#000000;stroke-width:0.926039;stroke-linecap:round;stroke-linejoin:round;stroke-dasharray:none;stroke-opacity:1"
       d="m 16.869028,36.199112 0.01235,17.399966"
       id="path5"
       sodipodi:nodetypes="cc"
       inkscape:label="string" />
    <path
       style="fill:none;stroke:#000000;stroke-width:0.926039;stroke-linecap:round;stroke-linejoin:round;stroke-dasharray:none;stroke-opacity:1"
       d="m 17.619817,36.224109 15.595449,17.4056"
       id="path6"
       sodipodi:nodetypes="cc"
       inkscape:label="string" />
    <path
       style="fill:none;stroke:#000000;stroke-width:0.926039;stroke-linecap:round;stroke-linejoin:round;stroke-dasharray:none;stroke-opacity:1"
       d="M 82.109195,36.485368 66.723704,53.686848"
       id="path4-3"
       sodipodi:nodetypes="cc"
       inkscape:label="string" />
    <path
       style="fill:none;stroke:#000000;stroke-width:0.926039;stroke-linecap:round;stroke-linejoin:round;stroke-dasharray:none;stroke-opacity:1"
       d="m 83.124915,36.226925 0.0123,17.399967"
       id="path5-2"
       sodipodi:nodetypes="cc"
       inkscape:label="string" />
    <path
       style="fill:none;stroke:#000000;stroke-width:0.926039;stroke-linecap:round;stroke-linejoin:round;stroke-dasharray:none;stroke-opacity:1"
       d="m 83.875705,36.251923 15.59545,17.4056"
       id="path6-9"
       sodipodi:nodetypes="cc"
       inkscape:label="string" />
    <circle
       style="fill:none;stroke:#ffd700;stroke-width:2.00001;stroke-linecap:round;stroke-linejoin:round;stroke-opacity:1"
       id="path3"
       cy="34.259071"
       cx="16.869028"
       r="1.94004"
       inkscape:label="latch" />
    <circle
       style="fill:none;stroke:#ffd700;stroke-width:2.00001;stroke-linecap:round;stroke-linejoin:round;stroke-opacity:1"
       id="path3-8"
       cy="34.259071"
       cx="83.131065"
       r="1.94004"
       inkscape:label="latch" />
    <path
       id="rect6"
       style="fill:#000000;fill-opacity:1;stroke:none;stroke-width:0.926042;stroke-linecap:round;stroke-linejoin:round;stroke-dasharray:none;stroke-opacity:1"
       d="m 0.04463088,53.571725 v 1.893424 H 33.718027 V 53.571725 Z M 0.03998,72.303398 v 1.893424 c 5.5893622,1.971725 11.178492,3.927721 16.767969,3.935677 5.635127,0.008 11.270413,-1.963759 16.905428,-3.935677 v -1.893424 z"
       inkscape:label="scale" />
    <path
       id="rect6-5"
       style="fill:#000000;fill-opacity:1;stroke:none;stroke-width:0.926042;stroke-linecap:round;stroke-linejoin:round;stroke-dasharray:none;stroke-opacity:1"
       d="m 66.300515,53.626892 v 1.893424 h 33.6734 v -1.893424 z m -0.0047,18.731673 v 1.893424 c 5.589362,1.971725 11.178491,3.927721 16.767971,3.935677 5.63513,0.008 11.27041,-1.963759 16.90543,-3.935677 v -1.893424 z"
       inkscape:label="scale" />
    <path
       style="font-size:42.6667px;line-height:1;font-family:'Javanese Text';-inkscape-font-specification:'Javanese Text';text-align:center;letter-spacing:-0.67px;word-spacing:-1px;text-orientation:sideways;baseline-shift:baseline;text-anchor:middle;white-space:pre;fill:#ffd700;fill-opacity:1;stroke-width:0.926042;stroke-linecap:round;stroke-linejoin:round"
       d="m 83.178215,63.652683 -4.592897,8.705883 H 77.361602 L 69.447207,56.437933 h -3.146693 v -0.917617 h 9.265258 v 0.917617 h -2.828846 l 6.134453,12.29605 h 0.06356 l 3.512213,-6.606833 -2.828844,-5.689217 h -2.669915 v -0.917617 h 9.265248 v 0.917617 h -3.305614 l 6.13446,12.29605 h 0.06356 l 6.531757,-12.29605 h -3.17848 v -0.917617 h 7.580656 v 0.917617 H 97.179356 L 88.756403,72.358566 H 87.53269 l -4.290945,-8.705883 z"
       id="text8"
       aria-label="W"
       inkscape:label="W" />
    <path
       d="m 25.392291,72.303398 -1.380588,0.01015 -14.0906785,-15.376641 -0.081855,0.01157 v 14.427828 h 2.9469081 v 0.927092 H 5.0913745 v -0.927088 h 3.274342 v -14.98409 h -3.274342 v -0.927091 h 7.3181545 l 11.427455,12.538893 0.08185,-0.01157 V 56.39224 h -3.274343 v -0.927089 h 8.022138 v 0.927089 h -3.274342 z"
       id="text9"
       style="font-size:42.6667px;line-height:1;font-family:'Javanese Text';-inkscape-font-specification:'Javanese Text';text-align:center;letter-spacing:-0.67px;word-spacing:-1px;text-orientation:sideways;text-anchor:middle;white-space:pre;mix-blend-mode:normal;fill:#ffd700;fill-opacity:1;stroke-width:0.926036;stroke-linecap:round;stroke-linejoin:round"
       aria-label="N"
       sodipodi:nodetypes="ccccccccccccccccccccccc"
       inkscape:label="N" />
  </g>
</svg>
